<svg width="49" height="50" viewBox="0 0 49 50" fill="none" xmlns="http://www.w3.org/2000/svg">
<path fill-rule="evenodd" clip-rule="evenodd" d="M46.2201 19.946C49.5264 22.5042 49.5264 27.4958 46.2201 30.054C36.2283 37.7854 25.071 43.8792 13.1658 48.1075L10.9909 48.8799C6.83002 50.3577 2.43498 47.5425 1.87168 43.2474C0.297818 31.2467 0.297818 18.7534 1.87168 6.75265C2.43498 2.45749 6.83002 -0.357715 10.9909 1.12009L13.1658 1.89254C25.071 6.1208 36.2283 12.2147 46.2201 19.946ZM43.1603 26.0996C43.8797 25.543 43.8797 24.457 43.1603 23.9004C33.5876 16.4934 22.8982 10.6551 11.4924 6.60419L9.31752 5.83174C8.23436 5.44704 6.98957 6.18023 6.82923 7.40282C5.31197 18.9719 5.31197 31.0281 6.82923 42.5972C6.98957 43.8198 8.23435 44.553 9.31752 44.1683L11.4924 43.3958C22.8982 39.3449 33.5876 33.5066 43.1603 26.0996Z" fill="#71C285"/>
</svg>
