<svg width="159" height="236" viewBox="0 0 159 236" fill="none" xmlns="http://www.w3.org/2000/svg">
<path fill-rule="evenodd" clip-rule="evenodd" d="M21.7923 223.967C20.7635 224.993 20.3894 225.739 20.2959 226.392V226.765C20.3894 228.071 21.6988 229.097 21.5118 231.149H21.6053C21.8859 227.791 19.1735 227.232 22.0729 224.34C23.3823 225.739 25.9076 226.765 23.5694 229.47V229.657C24.3176 228.817 24.5982 228.164 24.7853 227.511C27.03 227.978 24.5047 231.802 25.3465 233.761H25.44C24.6918 231.989 27.8718 227.418 24.8788 226.952C24.7853 225.273 22.5406 224.433 22.0729 222.941C21.5118 221.168 22.1665 219.116 24.1306 218.463C24.5982 220.515 26.6559 222.288 26.6559 225.459H26.8429C26.9365 219.862 22.3535 219.023 26.8429 214.172C29.1812 216.504 33.4835 218.183 30.0229 222.661L30.1165 222.941C31.1453 221.541 31.7065 220.422 31.8 219.489C35.5412 220.329 31.8935 226.672 33.5771 229.843H33.6706H33.7641C33.7641 229.843 33.7641 229.75 33.6706 229.75C33.2965 228.911 33.39 227.605 33.6706 226.205C34.1382 223.687 34.98 220.795 33.6706 219.396C33.2965 218.93 32.7353 218.65 31.8935 218.556C31.5194 215.758 27.6847 214.359 26.6559 211.934C25.44 209.042 26.2818 205.59 29.5553 204.564C29.5553 205.031 29.4618 205.497 29.4618 206.057C29.5553 209.228 31.8 211.187 33.6706 213.333C35.1671 214.919 36.3829 216.598 36.2894 218.93L36.6635 219.116C36.8506 216.318 35.3541 214.359 33.8576 212.493C34.2318 212.68 34.7929 212.866 35.5412 213.053C42.93 215.198 41.7141 220.795 41.0594 226.205L41.2465 226.392C41.4335 224.62 41.8076 222.941 41.9012 221.355C43.8653 221.915 44.52 223.873 43.9588 225.553C43.4912 226.952 41.4335 227.698 41.2465 229.284C38.347 229.75 41.34 234.041 40.6853 235.72H40.7788C41.527 233.855 39.1888 230.31 41.34 229.843C41.4335 230.403 41.8076 231.056 42.4623 231.802V231.616C40.3112 229.004 42.6494 228.164 43.8653 226.765C46.5776 229.47 44.0523 230.03 44.3329 233.202H44.4265C44.1459 230.217 47.3259 229.47 44.1459 226.392C45.2682 224.713 44.52 221.448 41.9012 220.609C41.9947 217.997 41.5271 215.665 38.7212 213.519C38.16 213.053 37.4118 212.773 36.6635 212.493C36.4765 211.374 37.9729 209.042 36.3829 208.855C36.2894 207.922 35.0735 207.456 34.7929 206.617C34.5123 205.777 34.6994 204.751 35.5412 204.285C38.7212 206.057 43.8653 206.617 42.0882 213.146H42.3688C43.7718 207.829 42.0882 206.243 39.0018 204.844C36.0088 203.445 31.9871 202.139 36.1959 197.755C37.4118 197.382 38.7212 197.195 40.1241 197.102C39.6565 197.568 39.2823 198.128 39.1888 198.688C38.8147 201.579 45.0812 200.273 42.93 205.124H43.117C45.1747 200.367 40.2176 201.02 39.8435 198.968C39.75 198.315 40.1241 197.662 40.9659 197.009C43.3976 196.915 46.2035 197.102 49.1029 197.382C45.8294 199.341 45.4553 204.005 47.4194 206.803C43.8653 210.628 45.7359 212.4 47.1388 214.919C46.4841 215.385 46.0165 215.851 45.6423 216.411C45.3618 216.784 45.1747 217.251 45.1747 217.624C44.8006 221.075 52.1894 219.489 49.6641 225.366H49.8512C51.5347 221.541 50.0382 220.795 47.8871 219.676C46.7647 219.116 45.0812 218.37 46.2035 216.691C46.4841 216.224 46.9518 215.851 47.4194 215.478C47.8871 216.411 48.1676 217.437 48.1676 218.743H48.3547C48.4482 213.146 43.8653 212.307 48.3547 207.456C50.6929 209.881 54.9953 211.467 51.5347 215.945L51.6282 216.224C52.6571 214.825 53.2182 213.706 53.3118 212.773C57.0529 213.613 53.4053 219.956 55.0888 223.127H55.1823C53.6859 220.236 58.5494 212.587 53.3118 211.84C52.9376 209.042 49.1029 207.643 48.0741 205.217C46.8582 202.326 48.4482 198.688 51.7218 197.662C54.2471 197.941 56.8659 198.315 59.3912 198.688C60.42 199.527 60.7006 201.02 60.3265 202.326C59.8588 203.725 57.8012 204.471 57.6141 206.057C54.7147 206.523 57.7076 210.814 57.0529 212.493H57.1465C57.8947 210.628 55.5565 207.083 57.7076 206.617C57.8012 207.176 58.1753 207.829 58.83 208.575V208.389C56.6788 205.777 59.0171 204.937 60.2329 203.538C62.9453 206.243 60.42 206.803 60.7006 209.975H60.7941C60.5135 206.99 63.6935 206.243 60.5135 203.165C61.3553 202.046 61.1682 200.087 60.2329 198.781C62.7582 199.061 65.19 199.341 67.6218 199.527C65.4706 201.766 65.2835 205.59 66.9671 207.829C65.9382 208.949 65.3771 209.881 65.0965 210.721V210.534C60.42 211.654 59.3912 217.437 61.6359 220.329C56.8659 225.459 62.1971 226.672 62.1035 231.709H62.2906C62.3841 226.392 58.0818 225.553 62.2906 220.982C64.4418 223.221 68.5571 224.713 65.2835 229.097L65.3771 229.377C66.4059 228.071 66.8735 226.952 66.9671 226.019C70.5212 226.765 67.0606 232.828 68.6506 235.907H68.7441C67.3412 233.108 71.9241 225.926 66.9671 225.179C66.5929 222.568 62.9453 221.262 62.01 218.93C60.7941 216.038 61.7294 212.68 65.0965 211.84C65.0965 214.172 67.6218 215.758 67.5282 219.209H67.7153C67.8088 213.892 63.5065 213.053 67.7153 208.482C69.8665 210.721 73.9818 212.213 70.7082 216.598L70.8018 216.877C71.8306 215.571 72.2982 214.452 72.3918 213.519C75.9459 214.266 72.4853 220.329 74.0753 223.407H74.1688C73.4206 222.008 74.3559 219.303 74.6365 216.971C76.9747 217.717 77.8165 220.142 77.0682 222.194C76.5071 223.967 73.8882 224.9 73.7012 226.858C70.0535 227.418 73.8882 232.828 72.9529 234.881H73.0465C73.9818 232.549 71.0824 228.071 73.7012 227.511C73.7947 228.164 74.2624 229.004 75.1041 230.03V229.843C72.3918 226.579 75.3847 225.459 76.8812 223.78C80.3418 227.232 77.0682 227.885 77.4424 231.802H77.5359C77.1618 227.978 81.09 227.138 77.2553 223.314C78.6582 221.262 77.8165 217.251 74.6365 216.131C74.73 214.359 74.3559 212.96 72.2982 212.68C71.9241 210.068 68.2765 208.762 67.3412 206.43C66.3123 203.911 66.8735 200.926 69.3988 199.714C72.4853 199.807 75.3847 199.621 77.7229 198.968C79.8741 199.714 80.7159 201.766 79.9676 203.632C79.4065 205.217 76.7876 206.15 76.6006 208.016C72.9529 208.575 76.7876 213.519 75.8524 215.478H75.9459C76.8812 213.333 73.9818 209.228 76.6006 208.669C76.6941 209.322 77.1618 210.068 78.0035 211.001V210.814C75.2912 207.829 78.2841 206.803 79.7806 205.217C83.2412 208.389 79.9676 208.949 80.3418 212.68H80.4353C80.2482 210.534 81.6512 209.415 81.8382 208.016C83.3347 208.389 83.8959 209.788 83.4282 210.907C83.0541 211.934 81.4641 212.493 81.3706 213.613C79.1259 213.892 81.4641 216.971 80.9029 218.183H80.9965C81.5576 216.877 79.7806 214.359 81.3706 213.986C81.4641 214.359 81.7447 214.825 82.2124 215.385V215.292C80.5288 213.426 82.3994 212.866 83.3347 211.84C85.3923 213.799 83.4282 214.172 83.7088 216.411H83.8023C83.6153 214.266 86.0471 213.799 83.6153 211.56C84.5506 210.348 83.8959 208.016 81.8382 207.456C81.7447 206.71 81.2771 205.87 80.1547 204.844C81.3706 203.165 80.9029 200.18 78.7518 198.781C82.5865 197.382 83.4282 197.382 87.2629 198.781C85.1118 200.273 84.6441 203.165 85.86 204.844C81.9318 208.389 85.9535 209.228 85.5794 212.68H85.6729C86.0471 209.042 82.8671 208.389 86.2341 205.217C87.7306 206.803 90.7235 207.829 88.0112 210.814V211.001C88.8529 210.068 89.2271 209.322 89.4141 208.669C92.0329 209.228 89.1335 213.426 90.0688 215.478H90.1624C89.3206 213.613 93.0618 208.575 89.4141 208.016C89.2271 206.243 86.6082 205.311 86.0471 203.632C85.3924 201.766 86.1406 199.714 88.2918 198.968C90.63 199.621 93.2488 199.807 96.2418 199.714C98.58 201.02 99.1412 203.818 98.0188 206.337C97.0835 208.669 93.81 209.508 93.3424 212.12C91.1912 212.493 90.9106 214.172 91.1912 216.224C88.1982 217.437 87.2629 221.355 88.6659 223.407C84.7376 227.232 88.7594 228.164 88.3853 231.896H88.4788C88.8529 227.885 85.6729 227.325 89.04 223.873C90.5365 225.553 93.5294 226.672 90.8171 229.937V230.123C91.6588 229.097 92.0329 228.351 92.22 227.605C94.8388 228.164 91.9394 232.735 92.8747 234.974H92.9682C92.1265 232.922 95.8676 227.511 92.22 226.952C92.0329 224.993 89.4141 223.967 88.8529 222.288C88.1047 220.236 88.9465 217.81 91.1912 217.064C91.6588 219.489 92.5006 222.101 91.7523 223.407H91.8459C93.3424 220.329 89.8818 214.359 93.5294 213.519C93.6229 214.452 94.0906 215.478 95.1194 216.877L95.2129 216.598C91.9394 212.307 95.9612 210.814 98.2059 208.482C102.415 213.053 98.1124 213.892 98.2059 219.209H98.3929C98.2994 215.758 100.825 214.172 100.825 211.84C104.192 212.68 105.127 216.038 103.911 218.93C102.976 221.262 99.3282 222.568 98.9541 225.179C93.9971 225.926 98.58 233.202 97.1771 235.907H97.2706C98.7671 232.828 95.3065 226.858 98.9541 226.019C99.0476 226.952 99.5153 227.978 100.544 229.377L100.638 229.097C97.3641 224.806 101.386 223.314 103.631 220.982C107.839 225.553 103.537 226.392 103.631 231.709H103.818C103.724 226.672 109.242 225.553 104.472 220.329C106.904 216.504 105.127 211.187 100.544 210.068C100.264 209.415 99.7024 208.669 98.9541 207.829C100.638 205.59 100.451 201.766 98.2994 199.527C100.638 199.341 103.163 199.154 105.688 198.781C104.659 200.087 104.566 202.046 105.408 203.165C102.321 206.243 105.408 206.896 105.127 209.975H105.221C105.501 206.803 102.976 206.337 105.688 203.538C106.904 204.844 109.242 205.777 107.091 208.389V208.575C107.746 207.829 108.12 207.176 108.214 206.617C110.365 207.083 107.933 210.721 108.775 212.493H108.868C108.12 210.814 111.206 206.523 108.307 206.057C108.214 204.471 106.062 203.725 105.595 202.326C105.127 201.02 105.408 199.527 106.53 198.688C109.242 198.315 111.955 197.941 114.574 197.662V197.755C118.221 198.594 119.25 202.232 117.941 205.311C116.912 207.736 113.171 209.135 112.703 211.934C107.559 212.68 112.329 220.329 110.832 223.221H110.926C112.516 220.049 108.868 213.613 112.703 212.866C112.796 213.799 113.358 215.012 114.386 216.318L114.48 216.038C111.019 211.467 115.322 209.881 117.66 207.549C122.056 212.4 117.566 213.239 117.66 218.836H117.847C117.847 217.53 118.128 216.411 118.595 215.478C119.156 215.851 119.624 216.318 119.905 216.784C121.027 218.556 119.344 219.209 118.221 219.769C115.976 220.888 114.574 221.635 116.257 225.459H116.444C113.919 219.583 121.308 221.168 120.934 217.717C120.934 217.344 120.746 216.877 120.466 216.504C120.092 215.945 119.531 215.478 118.969 215.012C120.279 212.493 122.056 210.721 118.502 206.896C120.466 204.285 119.998 199.62 117.005 197.475C119.998 197.195 122.898 197.009 125.423 197.102C125.797 197.382 126.078 197.662 126.265 198.035C127.2 199.527 125.797 200.087 124.862 200.553C122.991 201.486 121.775 202.139 123.178 205.311H123.365C121.214 200.367 127.387 201.766 127.106 198.874C127.106 198.501 126.919 198.221 126.732 197.848C126.545 197.662 126.452 197.382 126.171 197.195C127.574 197.288 128.884 197.475 130.099 197.848C130.848 198.408 131.409 199.154 131.783 199.807C133.092 202.512 130.286 203.632 128.416 204.471C124.675 206.15 122.243 207.363 123.926 213.239H124.207C122.43 206.71 127.574 206.15 130.754 204.378C131.502 204.844 131.783 205.87 131.502 206.71C131.222 207.549 130.006 208.016 129.912 208.949C128.229 209.228 129.819 211.467 129.632 212.587C128.884 212.866 128.135 213.146 127.574 213.613C124.862 215.758 124.301 218.09 124.394 220.702C121.775 221.541 121.027 224.806 122.149 226.485C119.063 229.564 122.149 230.217 121.869 233.295H121.962C122.243 230.123 119.718 229.657 122.43 226.858C123.646 228.164 125.984 229.097 123.833 231.709V231.896C124.488 231.149 124.862 230.496 124.955 229.937C127.106 230.403 124.675 234.041 125.516 235.813H125.61C124.862 234.134 127.948 229.843 125.049 229.377C124.955 227.791 122.804 227.045 122.336 225.646C121.775 223.967 122.43 222.008 124.394 221.448C124.581 223.034 124.862 224.713 125.049 226.485L125.236 226.299C124.675 220.889 123.365 215.292 130.754 213.146C131.502 212.96 132.064 212.773 132.438 212.587C130.941 214.452 129.445 216.318 129.632 219.209L130.006 219.023C129.912 216.691 131.128 215.012 132.625 213.426C134.495 211.281 136.74 209.322 136.834 206.15C136.834 205.59 136.834 205.124 136.74 204.658C139.92 205.684 140.855 209.135 139.639 212.027C138.611 214.452 134.869 215.851 134.402 218.65C133.56 218.743 132.999 219.116 132.625 219.489C131.315 220.888 132.157 223.78 132.625 226.299C132.905 227.698 132.999 228.911 132.625 229.843C132.625 229.843 132.625 229.937 132.531 229.937H132.625H132.718C134.308 226.765 130.661 220.329 134.495 219.583C134.589 220.515 135.15 221.728 136.179 223.034L136.272 222.754C132.812 218.183 137.114 216.598 139.452 214.266C143.848 219.116 139.359 219.956 139.452 225.553H139.639C139.546 222.288 141.604 220.609 142.165 218.556C144.129 219.209 144.784 221.262 144.222 223.034C143.755 224.526 141.51 225.366 141.416 227.045C138.33 227.511 141.604 232.082 140.855 233.854H140.949C141.791 231.896 139.265 228.071 141.51 227.605C141.604 228.164 141.978 228.911 142.726 229.75V229.564C140.388 226.858 142.913 225.832 144.222 224.433C147.122 227.325 144.409 227.885 144.69 231.243H144.784C144.596 229.19 145.906 228.164 145.999 226.858V226.485C145.906 225.832 145.532 225.086 144.503 224.06C145.719 222.288 144.971 218.93 142.258 217.997C142.258 216.877 141.791 215.571 140.107 213.799C142.445 210.814 141.416 204.844 136.74 203.538C136.179 200.926 134.776 199.061 132.812 197.848C122.149 191.132 94.5582 199.621 87.3565 194.77C84.7376 180.685 80.6223 166.972 80.0612 152.514C80.3418 149.529 83.8023 142.439 87.9176 137.589C88.8529 137.682 89.7882 137.775 90.63 137.962C91.8459 138.615 93.4359 140.667 94.5582 142.999C94.8388 144.865 94.5582 149.156 93.6229 150.741C93.1553 151.488 93.4359 151.768 93.81 151.021C94.7453 149.436 95.1194 146.917 95.3065 144.958C95.9612 146.917 96.3353 148.876 96.1482 150.275C96.0547 151.115 96.3353 151.115 96.4288 150.275C97.0835 146.077 95.2129 140.947 93.1553 138.242C93.9971 138.522 94.9324 138.895 95.7741 139.361C97.9253 140.481 100.264 142.066 102.789 143.745C103.35 144.119 103.818 144.492 104.379 144.771C105.782 146.077 107.465 149.062 107.839 151.488C107.839 151.768 107.933 152.047 107.933 152.327C108.214 153.633 108.494 153.447 108.401 152.327C108.401 152.141 108.026 148.689 106.811 146.357C108.401 147.383 110.552 148.689 112.142 149.436C113.451 150.275 114.48 152.234 115.041 154.193C115.415 155.499 115.509 154.939 115.415 154.193C115.041 152.421 114.667 151.488 113.825 149.995C114.761 150.275 118.782 151.301 119.624 151.394C120.279 151.488 120.279 150.835 119.718 150.741C118.128 150.555 114.667 149.436 111.206 147.57C108.214 145.891 105.221 143.745 103.444 142.533C102.976 142.16 102.508 141.88 102.041 141.507C102.789 141.32 103.537 140.947 104.192 140.667L108.214 138.988C109.149 139.268 109.616 141.32 111.768 142.533C112.329 142.813 112.422 142.533 111.861 142.16C110.365 141.227 109.616 139.361 108.868 138.615L111.3 137.402C111.955 137.122 111.861 136.656 111.206 136.936C108.775 138.055 106.343 138.895 104.005 139.921C102.789 140.481 101.012 140.667 100.357 140.387C100.264 140.387 100.264 140.387 100.17 140.387C98.8606 139.454 97.5512 138.708 96.2418 138.055C93.9035 136.843 91.5653 136.19 89.2271 135.817C90.3494 134.604 91.3782 133.391 92.3135 132.365C94.8388 130.966 102.602 130.406 106.904 132.179C108.868 133.018 109.429 132.179 107.559 131.339C105.969 130.686 103.724 130.126 101.292 129.753C103.724 128.914 106.343 127.701 110.084 125.742C111.768 124.903 113.451 123.783 115.228 122.664C115.322 122.664 115.415 122.664 115.509 122.571C116.444 122.104 118.782 121.918 120.466 122.291C123.646 122.851 127.013 123.224 130.286 123.877C131.128 124.063 131.222 123.597 130.38 123.41L127.013 122.664C127.948 121.731 128.977 119.679 130.941 118.466C131.689 118 131.502 117.72 130.754 118.093C127.855 119.772 127.294 121.918 125.984 122.384L120.559 121.545C119.624 121.358 118.595 121.171 117.66 121.078C118.315 120.612 118.969 120.239 119.531 119.772C121.962 118.187 125.797 115.388 129.819 113.149C134.402 110.538 139.078 108.765 141.229 108.205C142.071 108.019 141.978 107.366 141.136 107.553C140.014 107.832 134.589 109.605 133.373 110.071C134.495 108.392 134.963 107.459 135.431 105.5C135.618 104.661 135.431 104.194 134.963 105.594C134.215 107.739 132.905 109.885 131.222 111.004C129.164 112.03 126.265 113.802 124.114 115.108C125.61 112.59 125.984 109.045 126.078 108.765C126.265 107.553 125.891 107.459 125.516 108.858C125.423 109.138 125.423 109.418 125.329 109.698C124.955 112.217 122.711 115.575 120.84 117.16C120.185 117.627 119.437 118.093 118.782 118.56C115.509 120.798 112.329 122.944 109.523 124.436C108.401 125.089 107.185 125.556 106.062 126.022C108.775 122.851 111.113 117.347 110.178 113.243C109.991 112.403 109.616 112.403 109.804 113.243C110.178 114.642 109.71 116.694 108.868 118.746C108.588 116.881 107.933 114.362 106.717 112.963C106.156 112.31 105.875 112.683 106.436 113.336C107.746 114.735 108.214 119.026 107.839 120.985C106.436 123.597 104.285 126.022 102.602 126.862C96.5223 128.634 93.5294 128.634 90.0688 128.914C89.7882 128.914 89.6947 129.194 89.6012 129.567L78.4712 145.611C78.6582 142.626 78.7518 136.47 79.3129 133.298C79.7806 130.406 80.4353 127.421 81.09 124.25C86.1406 121.824 87.9176 120.892 92.5006 116.228C93.4359 115.295 94.3712 114.175 95.3065 113.056C95.4 113.056 95.4 112.963 95.4935 112.963C96.0547 112.496 97.5512 111.843 98.7671 111.75C101.012 111.47 103.35 111.004 105.688 110.817C106.343 110.724 106.249 110.444 105.595 110.538L103.163 110.724C103.631 109.885 103.911 108.299 104.94 107.086C105.314 106.62 105.127 106.433 104.753 106.9C103.163 108.579 103.163 110.164 102.415 110.724L98.58 111.284C97.9253 111.377 97.1771 111.47 96.5224 111.564C96.8965 111.19 97.1771 110.724 97.5512 110.351C98.8606 108.765 100.825 106.06 103.069 103.728C105.595 101.023 108.401 98.8774 109.71 98.1312C110.271 97.8513 109.991 97.3849 109.523 97.6648C108.775 98.1312 105.501 100.37 104.846 101.023C105.314 99.6237 105.408 98.8774 105.314 97.5715C105.314 96.9185 105.034 96.6387 105.034 97.6648C104.94 99.2505 104.566 100.93 103.631 102.049C102.415 103.168 100.825 104.941 99.7024 106.247C100.17 104.194 99.7024 101.769 99.7024 101.583C99.6088 100.743 99.3282 100.743 99.3282 101.769C99.3282 101.956 99.3282 102.236 99.4218 102.422C99.7024 104.194 98.8606 106.9 98.0188 108.392C97.6447 108.858 97.2706 109.325 96.8965 109.791C95.1194 111.937 93.4359 114.082 91.8459 115.668C91.1912 116.321 90.5365 116.881 89.8818 117.44C91.0976 114.735 91.4718 110.538 89.9753 108.019C89.6947 107.459 89.4141 107.553 89.6947 108.112C90.2559 108.952 90.3494 110.444 90.2559 112.03C89.6947 110.817 88.7594 109.232 87.5435 108.579C86.9823 108.299 86.8888 108.579 87.45 108.858C88.5724 109.511 89.7882 112.31 89.9753 113.709C89.6012 115.761 88.5724 117.813 87.7306 118.746C85.0182 120.519 83.2412 121.358 81.6512 122.011C82.7735 117.347 84.0829 112.496 85.4859 107.459C86.0471 105.5 86.5147 103.541 87.0759 101.583C90.63 93.1873 100.357 83.9525 109.429 80.5011C110.832 80.4079 113.264 81.2474 115.509 82.6466C116.725 84.0458 118.876 87.777 118.876 89.6426C118.876 90.4822 119.25 90.6687 119.25 89.8292C119.156 87.9636 118.128 85.6316 117.286 83.9525C118.876 85.2585 120.279 86.6577 120.84 88.0569C121.214 88.8964 121.401 88.7098 121.027 87.8703C119.344 84.0458 115.041 80.6877 111.768 79.4751C112.609 79.2885 113.545 79.1019 114.574 79.0087C116.912 78.7288 119.811 78.9154 122.804 79.0087C123.459 79.0087 124.02 79.1019 124.675 79.1019C126.545 79.4751 129.632 81.0608 131.222 82.9264C131.409 83.113 131.596 83.3928 131.783 83.5794C132.718 84.5122 132.905 84.2324 132.157 83.3928C131.97 83.2063 129.819 80.5944 127.668 79.1952C129.538 79.1952 132.064 79.1019 133.747 78.9154C135.244 78.9154 137.208 80.0347 138.704 81.3407C139.733 82.2735 139.546 81.7138 138.985 81.1541C137.675 79.8482 136.927 79.2885 135.337 78.5422C136.272 78.3557 140.201 76.9565 140.949 76.5834C141.51 76.3035 141.229 75.7438 140.668 76.0237C139.265 76.6766 135.711 77.7027 131.783 77.9826C128.322 78.2624 124.675 77.9826 122.524 77.8893C121.962 77.8893 121.308 77.8893 120.746 77.796C121.214 77.2363 121.682 76.4901 122.056 75.9304L124.581 72.3857C125.516 72.1059 127.013 73.5984 129.538 73.4118C130.193 73.4118 130.099 73.0387 129.445 73.0387C127.668 73.0387 126.078 71.9193 125.049 71.6395L126.452 69.3075C126.826 68.7478 126.545 68.3747 126.171 68.9343C124.768 71.1731 123.178 73.132 121.682 75.3707C120.934 76.4901 119.531 77.6094 118.782 77.7027C118.689 77.7027 118.689 77.7027 118.595 77.796C117.005 77.796 115.415 77.796 114.106 77.9826C105.408 78.9154 95.0259 86.1913 89.3206 92.8142C90.2559 89.1762 91.0976 84.6055 91.8459 80.3146C99.3282 76.6766 101.854 75.464 108.494 68.7478C109.804 67.4418 111.206 65.8561 112.516 64.2703C112.609 64.2703 112.703 64.177 112.703 64.177C113.451 63.5241 115.602 62.5913 117.379 62.4047C120.653 62.0316 123.926 61.3786 127.2 61.0988C128.042 61.0055 128.042 60.5391 127.106 60.6324L123.739 60.9122C124.394 59.6996 124.768 57.5541 126.265 55.7818C126.826 55.1288 126.545 54.849 125.984 55.5019C123.739 57.9272 123.739 60.166 122.711 61.0055L117.192 61.7517C116.257 61.845 115.228 61.9383 114.293 62.2181C114.761 61.6585 115.228 61.0055 115.696 60.4458C117.473 58.2071 120.372 54.3826 123.646 51.0245C127.294 47.2 131.222 44.1217 133.092 43.0023C133.841 42.5359 133.56 41.9762 132.812 42.4426C131.783 43.0023 127.106 46.3604 126.078 47.2C126.732 45.2411 126.826 44.215 126.732 42.2561C126.639 41.4166 126.358 40.9502 126.358 42.4426C126.265 44.6814 125.704 47.1067 124.301 48.6924C122.617 50.2782 120.372 52.7968 118.782 54.7557C119.437 51.864 118.782 48.4126 118.782 48.1328C118.595 47.0134 118.221 47.0134 118.221 48.4126C118.221 48.6924 118.315 49.0656 118.315 49.3454C118.689 51.864 117.566 55.7818 116.257 57.8339C115.696 58.4869 115.228 59.1399 114.667 59.7928C112.235 62.8711 109.804 65.8561 107.559 68.0948C106.624 69.0276 105.688 69.8672 104.753 70.7067C106.436 66.8822 106.998 60.9122 104.846 57.2743C104.379 56.528 104.098 56.7146 104.472 57.4608C105.221 58.6735 105.408 60.8189 105.221 63.0577C104.379 61.3786 103.069 59.1399 101.386 58.2071C100.638 57.7407 100.544 58.2071 101.292 58.5802C102.976 59.513 104.659 63.5241 104.94 65.483C104.379 68.4679 102.976 71.3596 101.76 72.6656C97.6447 75.3707 94.9324 76.4901 92.5006 77.5162C92.6876 76.117 92.9682 74.811 93.0618 73.5984L93.6229 68.0948C94.4647 62.2181 91.2847 51.211 93.3424 47.9462C94.0906 46.8268 95.4 45.5209 96.8965 44.4015C98.6735 43.7486 102.882 43.1889 104.659 43.8419C105.408 44.1217 105.688 43.8419 104.94 43.562C103.163 43.0023 100.638 43.0956 98.6735 43.2822C100.451 42.2561 102.321 41.5098 103.724 41.5098C104.566 41.5098 104.566 41.23 103.631 41.23C99.4218 41.4166 94.7453 44.215 92.4071 46.7336C92.5006 45.8007 92.6876 44.8679 92.9682 43.9351C93.6229 41.6031 94.7453 38.9913 95.9612 36.2861C96.2418 35.7264 96.4288 35.1668 96.7094 34.5138C97.7382 32.928 100.357 30.6893 102.695 29.8498C102.976 29.7565 103.256 29.6632 103.537 29.5699C104.753 29.0102 104.566 28.8237 103.444 29.1968C103.256 29.2901 99.9829 30.3162 97.9253 31.8086C98.58 30.0363 99.4218 27.7043 99.8894 26.0252C100.451 24.626 102.228 23.2268 104.005 22.294C105.221 21.6411 104.659 21.6411 103.911 22.0142C102.228 22.7604 101.386 23.2268 100.076 24.3462C100.17 23.4134 100.357 19.2158 100.264 18.3762C100.17 17.7233 99.5153 17.8166 99.6088 18.4695C99.7024 20.0553 99.3282 23.6932 98.1124 27.4245C97.0835 30.6893 95.4935 34.0474 94.6518 36.0063C94.3712 36.566 94.1841 37.0324 93.9971 37.592C93.6229 36.9391 93.1553 36.2861 92.7812 35.6332L90.3494 31.9952C90.4429 31.0624 92.3135 30.1296 93.1553 27.7976C93.3423 27.1446 93.0618 27.1446 92.7812 27.7043C92.1265 29.2901 90.5365 30.4094 89.7882 31.3422L88.1047 29.1968C87.7306 28.6371 87.2629 28.7304 87.7306 29.2901C89.3206 31.4355 90.5365 33.6743 92.1265 35.8197C92.9682 36.9391 93.4359 38.6181 93.2488 39.3644C93.2488 39.4577 93.2488 39.4577 93.2488 39.5509C92.8747 40.4837 92.5006 41.4166 92.22 42.3494C90.9106 40.9502 89.3206 39.7375 87.3565 38.8047C86.5147 38.4316 85.5794 38.0585 84.5506 37.6853L84.4571 37.592C83.9894 37.3122 83.3347 36.3794 83.1476 35.5399C82.68 33.8608 82.1188 32.2751 81.7447 30.5027C81.6512 30.0363 81.3706 30.2229 81.4641 30.6893L81.8382 32.4616C81.09 32.4616 79.8741 32.7415 78.7518 32.3683C78.3776 32.2751 78.1906 32.4616 78.6582 32.5549C80.2482 33.2079 81.4641 32.6482 82.0253 32.928L82.7735 35.7264C82.8671 36.1928 83.0541 36.7525 83.2412 37.2189C82.8671 37.1256 82.4929 37.0324 82.1188 36.8458C80.7159 36.3794 78.3776 35.7264 76.2265 34.8869C73.7947 33.8608 71.8306 32.4616 70.9888 31.7154C70.7082 31.4355 70.3341 31.7154 70.7082 31.9952C71.0823 32.3683 73.3271 34.1407 73.8882 34.5138C72.7659 34.6071 72.1112 34.8869 70.9888 35.4466C70.5212 35.7264 70.2406 36.0063 71.0823 35.6332C72.3918 35.0735 73.7947 34.8869 74.73 35.1668C75.7588 35.7264 77.3488 36.2861 78.5647 36.6592C76.8812 37.0324 74.9171 38.245 74.8235 38.3383C74.1688 38.7114 74.1688 38.9913 75.0106 38.5249C75.1976 38.4316 75.3847 38.3383 75.4782 38.245C76.8812 37.4055 79.2194 37.1256 80.4353 37.2189C80.8094 37.3122 81.2771 37.4988 81.6512 37.592C83.5218 38.1517 85.3924 38.7114 86.8888 39.4577C87.45 39.7375 88.0112 40.0173 88.5723 40.3905C86.2341 40.3905 82.8671 41.6031 80.9029 43.6553C80.5288 44.1217 80.6223 44.215 80.9965 43.8419C81.6512 43.0956 82.8671 42.5359 84.1765 42.0695C83.2412 43.0023 82.1188 44.215 81.6512 45.3343C81.4641 45.894 81.6512 45.8007 81.9318 45.3343C82.3994 44.215 84.5506 42.2561 85.5794 41.6964C87.2629 41.3233 89.04 41.3233 89.8818 41.6964C90.63 42.3494 91.2847 43.0023 91.9394 43.7486C89.5077 52.4237 93.3424 59.9794 91.0976 67.815C87.45 66.1359 83.6153 64.6434 80.2482 62.4047C79.3129 61.4719 78.3776 59.3264 77.91 57.181C78.0971 55.7818 79.3129 52.8901 80.5288 52.1438C81.09 51.864 80.9965 51.4909 80.4353 51.864C79.2194 52.6102 78.2841 54.196 77.6294 55.4086C77.5359 53.7296 77.6294 52.2371 78.1906 51.3043C78.4712 50.7446 78.2841 50.6513 77.91 51.211C75.3847 53.4498 75.7588 57.8339 76.9747 60.6324C76.2265 60.0727 75.5718 59.4197 74.9171 58.7668C73.2335 57.0877 71.55 54.9422 69.6794 52.7035C69.3053 52.2371 68.9312 51.7707 68.5571 51.3043C67.6218 49.8118 66.78 46.9201 67.0606 45.1478C67.0606 44.9612 67.1541 44.6814 67.1541 44.4948C67.2476 43.4687 66.8735 43.4687 66.78 44.3083C66.78 44.4948 66.3123 47.0134 66.78 49.0656C65.5641 47.6664 63.9741 45.894 62.7582 44.6814C61.8229 43.562 61.3553 41.7897 61.2618 40.1106C61.2618 38.9913 60.9812 39.3644 60.9812 40.0173C60.8876 41.4166 60.9812 42.2561 61.4488 43.6553C60.7006 43.0956 57.3335 40.6703 56.5853 40.2039C56.0241 39.9241 55.8371 40.2972 56.3982 40.6703C57.7076 41.5098 60.607 43.7486 63.3194 46.547C65.6576 48.9723 67.8088 51.7707 69.1182 53.3565C69.4923 53.8229 69.8665 54.196 70.1471 54.6624C69.4923 54.4758 68.7441 54.3826 67.9959 54.3826L63.9741 53.8229C63.2259 53.2632 63.2259 51.5841 61.6359 49.8118C61.1682 49.3454 60.9812 49.532 61.4488 49.9984C62.5712 51.3043 62.7582 52.8901 63.2259 53.7296L60.7941 53.543C60.1394 53.4498 60.1394 53.8229 60.7006 53.8229C63.1323 54.1027 65.4706 54.5691 67.9023 54.849C69.1182 54.9422 70.7082 55.5952 71.2694 56.1549C71.2694 56.1549 71.3629 56.2482 71.4565 56.2482C72.4853 57.4608 73.4206 58.5802 74.3559 59.513C79.2194 64.3636 84.4571 66.509 90.0688 69.2142C89.7882 71.7328 89.4141 74.2513 88.9465 76.8632C87.5435 75.5573 86.0471 74.5312 84.27 73.6917C83.4282 73.3185 82.4929 72.9454 81.4641 72.5723L81.3706 72.479C80.9029 72.1992 80.2482 71.2664 80.0612 70.4268C79.5935 68.7478 79.0323 67.162 78.6582 65.3897C78.5647 64.9233 78.2841 65.1098 78.3776 65.5762L78.7518 67.3486C78.0035 67.3486 76.7876 67.6284 75.6653 67.2553C75.2912 67.162 75.1041 67.3486 75.5718 67.4419C77.1618 68.0948 78.3776 67.5351 78.9388 67.815L79.6871 70.6134C79.7806 71.0798 79.9676 71.6395 80.1547 72.1059C79.7806 72.0126 79.4065 71.9193 79.0324 71.7328C77.6294 71.2664 75.2912 70.6134 73.14 69.7739C70.7082 68.7478 68.7441 67.3486 67.9023 66.6023C67.6218 66.3225 67.2476 66.6023 67.6218 66.8822C67.9959 67.2553 70.2406 69.0276 70.8018 69.4007C69.6794 69.494 69.0247 69.7739 67.9023 70.3336C67.4347 70.6134 67.1541 70.8932 67.9959 70.5201C69.3053 69.9604 70.7082 69.7739 71.6435 70.0537C72.6723 70.6134 74.2623 71.1731 75.4782 71.5462C73.7947 71.9193 71.8306 73.132 71.737 73.2252C71.0823 73.6917 71.0823 73.8782 71.9241 73.5051C72.1112 73.4118 72.2982 73.3185 72.3918 73.2252C73.7947 72.3857 76.1329 72.1059 77.3488 72.1992C77.7229 72.2924 78.1906 72.479 78.5647 72.5723C80.5288 73.132 82.3059 73.6917 83.8023 74.4379C84.3635 74.7177 84.9247 74.9976 85.4859 75.3707C83.1476 75.3707 79.7806 76.5834 77.8165 78.6355C77.4423 79.1019 77.5359 79.1952 77.91 78.8221C78.5647 78.0758 79.7806 77.5162 81.09 77.0498C80.1547 77.9826 79.0323 79.1952 78.5647 80.3146C78.3776 80.8743 78.5647 80.781 78.8453 80.3146C79.3129 79.1952 81.4641 77.2363 82.4929 76.6766C84.1765 76.3035 85.9535 76.3035 86.7953 76.6766C87.45 77.2363 88.0112 77.796 88.5723 78.449C86.5147 89.4561 83.2412 100.463 81.3706 107.179C80.9029 108.952 80.3418 110.817 79.8741 112.59C78.9388 110.444 77.7229 108.205 76.6006 106.247L70.2406 94.2134C70.3341 91.0419 74.1688 90.109 75.7588 82.1802C76.1329 80.128 75.1976 80.128 74.9171 82.1802C74.1688 88.3367 70.7082 89.9225 69.2118 92.9075C67.5282 90.4822 65.4706 81.7138 60.3265 74.9976C59.4847 73.8782 58.1753 73.0387 56.9594 72.0126C56.9594 71.9193 56.9594 71.9193 56.8659 71.826C56.3982 71.2664 56.0241 69.5873 56.2112 68.1881C56.4918 65.5762 56.5853 63.0577 56.9594 60.4458C57.0529 59.7928 56.5853 59.7928 56.4918 60.5391L56.1176 63.2442C55.0888 62.7778 53.1247 62.5913 51.8153 61.4719C51.3476 61.0988 51.067 61.2853 51.5347 61.6584C53.3118 63.3375 55.4629 63.2442 56.0241 63.9905L55.65 68.3747C55.5565 69.1209 55.4629 69.9604 55.4629 70.7067C54.9953 70.3336 54.5276 69.9604 54.06 69.5873C52.3765 68.2814 49.3835 66.0426 46.9518 63.7106C44.1459 61.0055 42.0882 57.9272 41.4335 56.528C41.1529 55.9683 40.5918 56.2482 40.7788 56.8079C41.1529 57.6474 43.3041 61.192 43.8653 61.9383C42.1818 61.5652 41.2465 61.4719 39.3759 61.6584C38.5341 61.7517 38.0665 62.0316 39.4694 61.9383C41.5271 61.9383 43.6782 62.3114 44.8941 63.2442C46.11 64.5502 47.8871 66.2292 49.3835 67.4419C46.8582 67.0687 43.4912 67.7217 43.2106 67.7217C42.0882 67.9083 41.9947 68.2814 43.3041 68.0948C43.5847 68.0948 43.8653 68.0015 44.1459 68.0015C46.5776 67.6284 49.9447 68.3747 51.6282 69.3075C52.0959 69.6806 52.6571 70.0537 53.1247 70.5201C55.4629 72.3857 57.8012 74.1581 59.3912 75.8371C60.0459 76.5834 60.7006 77.2363 61.1682 77.9826C57.9882 76.7699 52.47 76.5834 48.7288 78.449C47.9806 78.8221 47.9806 79.1019 48.8223 78.7288C50.1318 78.0758 52.0959 77.8893 54.1535 77.8893C52.3765 78.6355 50.0382 79.7549 48.8223 81.1541C48.2612 81.8071 48.6353 81.9004 49.1965 81.2474C50.4123 79.8482 54.4341 78.3557 56.3047 78.0758C58.9235 78.449 61.3553 79.3818 62.3841 80.3146C64.2547 83.766 65.3771 88.3367 67.3412 92.9075C68.6506 95.7992 70.7082 98.5976 72.2047 101.489C68.4635 100.556 64.6288 99.8102 61.0747 98.3177C59.9523 97.5715 58.6429 95.6126 57.8012 93.5604C57.7076 92.1612 58.3623 89.083 59.4847 88.1502C59.9523 87.777 59.7653 87.4972 59.2976 87.8703C58.2688 88.8031 57.6141 90.5755 57.24 91.8814C56.7723 90.2956 56.6788 88.8031 57.0529 87.777C57.24 87.2173 56.9594 87.1241 56.7723 87.6838C55.7435 90.5755 56.9594 94.7731 58.6429 97.2917C57.8012 96.8253 57.0529 96.3588 56.2112 95.7992C54.247 94.4932 52.1894 92.6276 49.9447 90.762C49.4771 90.3889 49.0094 90.0158 48.5418 89.5494C47.3259 88.2434 46.0165 85.6316 45.9229 83.766C45.9229 83.5794 45.9229 83.2996 45.9229 83.113C45.8294 82.0869 45.4553 82.1802 45.5488 83.0197C45.5488 83.2063 45.5488 85.8181 46.3906 87.777C44.9876 86.6577 43.0235 85.1652 41.6206 84.2324C40.4982 83.2996 39.6565 81.6205 39.3759 80.0347C39.1888 79.0087 39.0018 79.2885 39.0953 79.9415C39.2823 81.3407 39.4694 82.0869 40.2176 83.3928C39.3759 82.9264 35.6347 81.1541 34.7929 80.8743C34.2318 80.6877 34.0447 81.1541 34.6994 81.3407C36.1959 81.9003 39.4694 83.5794 42.5559 85.8181C45.2682 87.777 47.8871 90.109 49.4771 91.5083C49.9447 91.8814 50.3188 92.2545 50.7865 92.6276C50.0382 92.6276 49.29 92.6276 48.6353 92.7209L44.6135 92.9075C43.7718 92.4411 43.4912 90.8553 41.5271 89.4561C41.0594 89.083 40.8723 89.2695 41.34 89.6426C42.6494 90.762 43.2106 92.2545 43.7718 93.0007L41.34 93.2806C40.6853 93.3739 40.6853 93.6537 41.34 93.5604C43.7718 93.3739 46.2035 93.3739 48.5418 93.1873C49.7576 93.094 51.4412 93.4671 52.0959 93.8403C52.1894 93.8403 52.1894 93.9336 52.2829 93.9336C53.4988 94.9596 54.6212 95.8924 55.7435 96.6387C61.5423 100.556 67.1541 101.676 73.3271 103.355C73.8882 104.381 74.4494 105.5 75.1041 106.526C77.1618 110.164 78.5647 115.668 78.2841 118.093C78.2841 118.28 78.2841 118.56 78.3776 118.746C77.0682 123.783 76.0394 128.541 75.2912 133.018C74.5429 137.869 74.0753 142.533 73.9818 147.104C70.3341 145.704 66.4994 144.119 60.3265 140.014C58.5494 138.149 56.5853 134.044 55.7435 129.847C56.1176 127.048 58.4559 121.545 60.8876 120.145C61.9165 119.492 61.7294 118.933 60.7006 119.586C58.3623 120.985 56.4918 124.156 55.2759 126.488C54.9953 123.317 55.2759 120.332 56.3047 118.56C56.9594 117.534 56.4918 117.254 55.8371 118.373C52.8441 123.504 53.6859 131.992 56.0241 137.402C54.6212 136.283 53.3118 135.07 52.0023 133.764C48.8223 130.5 45.3618 126.302 41.9012 121.918C41.1529 120.985 40.4047 120.052 39.6565 119.119C37.8794 116.228 36.2894 110.724 36.757 107.086C36.8506 106.713 36.8506 106.247 36.8506 105.873C36.9441 103.915 36.3829 103.915 36.1023 105.5C36.0088 105.78 35.167 110.817 36.1023 114.828C33.7641 112.123 30.5841 108.579 28.2459 106.247C26.3753 104.101 25.5335 100.556 25.3465 97.3849C25.2529 95.3328 24.8788 95.8924 24.7853 97.1051C24.5982 99.9035 24.7853 101.396 25.6271 104.101C24.2241 102.982 17.5835 98.2245 16.0871 97.3849C15.0582 96.732 14.5906 97.5715 15.6194 98.2245C18.2382 99.8102 23.85 104.194 28.9941 109.605C33.4835 114.362 37.6923 119.772 40.2176 122.944C40.8723 123.783 41.6206 124.623 42.2753 125.462C40.9659 125.183 39.4694 124.996 38.16 124.903L30.3971 123.783C28.9006 122.664 28.9941 119.492 25.8141 116.041C24.9723 115.108 24.5982 115.481 25.44 116.414C27.4976 118.933 28.0588 122.011 28.9941 123.69L24.2241 123.317C23.0082 123.224 22.9147 123.783 24.1306 123.97C28.8071 124.436 33.39 125.369 38.0665 125.836C40.4982 126.115 43.5847 127.328 44.6135 128.354C44.7071 128.447 44.8006 128.541 44.8941 128.541C46.8582 130.873 48.7288 133.018 50.5994 134.884C54.6212 138.988 57.6141 141.6 60.5135 143.745C58.4559 144.119 56.3982 144.771 54.3406 145.891C53.1247 146.544 51.8153 147.29 50.4123 148.223C50.3188 148.223 50.3188 148.223 50.2253 148.223C49.5706 148.503 47.7935 148.316 46.5776 147.756C44.2394 146.73 41.7141 145.891 39.3759 144.771C38.7212 144.492 38.7212 144.865 39.2823 145.238L41.7141 146.451C40.9659 147.29 40.2176 149.062 38.7212 149.995C38.16 150.368 38.2535 150.648 38.8147 150.368C40.9659 149.156 41.4335 147.104 42.3688 146.824L46.3906 148.503C47.0453 148.783 47.7935 149.156 48.5418 149.342C48.0741 149.622 47.6065 149.995 47.1388 150.368C45.3618 151.581 42.3688 153.82 39.3759 155.405C35.9153 157.271 32.3612 158.39 30.8647 158.577C30.21 158.67 30.3035 159.323 30.9582 159.23C31.8 159.137 35.9153 158.111 36.757 157.831C35.8218 159.323 35.5412 160.163 35.167 162.028C34.98 162.868 35.0735 163.334 35.5412 162.028C36.1023 160.07 37.1312 158.111 38.4406 157.271C40.0306 156.525 42.1818 155.219 43.7718 154.193C42.6494 156.525 42.2753 159.883 42.1818 160.163C41.9947 161.282 42.3688 161.469 42.6494 160.163C42.7429 159.883 42.7429 159.603 42.8365 159.323C43.2106 156.898 44.8941 153.913 46.2971 152.607C46.8582 152.234 47.3259 151.861 47.8871 151.488C50.3188 149.809 52.7506 148.13 54.9018 147.104C55.7435 146.637 56.6788 146.264 57.5206 145.984C55.4629 148.689 53.5923 153.82 54.2471 158.017C54.3406 158.857 54.6212 158.857 54.5276 158.017C54.3406 156.525 54.6212 154.659 55.3694 152.7C55.5565 154.566 55.9306 157.178 56.8659 158.764C57.24 159.51 57.5206 159.137 57.0529 158.484C56.1176 156.898 55.8371 152.607 56.1176 150.741C57.24 148.316 58.9235 146.264 60.0459 145.704C60.9812 145.518 61.9165 145.424 62.7582 145.331C65.8447 147.383 69.3988 149.156 74.1688 151.488C74.3559 166.413 79.2194 182.923 78.7518 194.863C70.5212 198.688 43.9588 190.945 33.6706 197.475C31.6129 198.781 30.21 200.553 29.7423 203.165C25.0659 204.471 24.1306 210.441 26.3753 213.426C24.7853 215.198 24.2241 216.504 24.2241 217.624C21.3247 218.836 20.5765 222.194 21.7923 223.967ZM131.97 202.699C132.157 202.326 132.344 201.859 132.344 201.3C132.344 200.74 132.251 200.087 131.97 199.527V199.434C131.876 199.247 131.689 198.968 131.596 198.781C131.783 198.874 131.876 198.968 132.064 199.061C134.215 200.46 135.431 202.699 135.337 206.243C135.337 208.109 134.402 209.602 133.373 211.001C132.999 211.281 132.531 211.467 132.064 211.654C131.035 212.027 130.006 212.4 129.071 212.68C129.258 211.56 128.135 209.602 129.351 209.322C129.445 209.695 129.632 210.068 130.006 210.534V210.441C128.696 208.855 130.099 208.389 130.848 207.549C132.438 209.228 130.941 209.508 131.128 211.374H131.222C131.035 209.602 132.905 209.135 131.128 207.27C131.689 206.43 131.502 205.031 130.567 204.191C131.035 203.818 131.596 203.352 131.97 202.699ZM30.1165 206.243C30.0229 202.699 31.3323 200.46 33.39 199.061C33.4835 198.968 33.6706 198.874 33.8576 198.781C33.6706 199.061 33.5771 199.247 33.39 199.527C33.1094 200.087 33.0159 200.647 33.0159 201.3C33.0159 201.859 33.2029 202.326 33.39 202.699C33.7641 203.352 34.3253 203.818 34.98 204.191C34.0447 204.938 33.8576 206.43 34.4188 207.27C32.5482 209.135 34.4188 209.508 34.2318 211.374H34.3253C34.5123 209.508 32.9223 209.135 34.6059 207.549C35.3541 208.389 36.7571 208.855 35.4476 210.441V210.534C35.8218 210.068 36.0088 209.695 36.1023 209.322C37.3182 209.602 36.1023 211.467 36.3829 212.68C35.4476 212.307 34.4188 212.027 33.39 211.654C32.9223 211.467 32.4547 211.281 32.0806 211.001C30.9582 209.508 30.1165 208.109 30.1165 206.243Z" fill="white"/>
<path fill-rule="evenodd" clip-rule="evenodd" d="M133.747 160.629C130.941 159.51 128.509 160.07 125.61 159.696C121.869 159.323 118.969 155.685 119.905 152.047C121.682 152.327 123.646 153.167 125.049 154.659C126.545 156.152 128.509 157.924 130.567 158.577C128.603 157.924 126.452 155.499 125.516 154.286C124.955 153.633 122.898 151.674 119.998 151.115C121.962 149.529 124.675 149.715 126.265 150.275C130.474 152.047 130.474 158.39 133.747 160.629Z" fill="white"/>
<path fill-rule="evenodd" clip-rule="evenodd" d="M115.228 155.312C117.379 155.219 119.063 156.805 119.718 158.017C121.588 161.282 118.221 165.387 119.25 168.651C118.034 166.506 116.164 165.573 114.386 163.801C112.142 161.562 112.142 157.644 114.667 155.779C115.696 156.898 116.538 158.484 116.725 160.163C116.912 161.935 117.286 164.081 118.315 165.573C117.379 164.081 117.286 161.376 117.192 160.163C117.192 159.51 116.818 157.178 115.228 155.312Z" fill="white"/>
<path fill-rule="evenodd" clip-rule="evenodd" d="M121.962 145.798C120.466 148.596 116.818 149.809 114.199 147.943C114.948 146.637 116.257 145.331 117.754 144.678C119.344 144.025 121.401 142.999 122.43 141.507C121.308 142.813 118.782 143.745 117.566 144.212C116.818 144.492 114.761 145.518 113.451 147.57C112.796 145.518 113.732 143.466 114.667 142.44C117.286 139.641 122.149 141.6 124.955 139.641C123.365 141.507 123.085 143.559 121.962 145.798Z" fill="white"/>
<path fill-rule="evenodd" clip-rule="evenodd" d="M107.372 159.51C106.811 157.644 107.091 155.592 107.746 154.006C111.206 154.939 112.796 159.137 111.3 162.495C110.178 165.107 108.494 166.786 108.026 169.677C107.746 165.76 102.508 162.775 103.163 158.484C103.444 156.898 104.566 154.566 106.904 153.726C105.969 156.338 106.53 159.043 106.811 159.79C107.278 161.189 108.307 164.174 107.839 166.133C108.401 163.987 107.933 161.469 107.372 159.51Z" fill="white"/>
<path fill-rule="evenodd" clip-rule="evenodd" d="M95.8676 155.965C95.4935 154.473 95.6806 152.794 96.1482 151.488C98.9541 152.234 100.264 155.685 99.0476 158.297C98.1123 160.349 96.8029 161.749 96.4288 164.081C96.1482 160.909 91.9394 158.484 92.5006 155.032C92.6876 153.726 93.6229 151.861 95.4935 151.208C94.7453 153.353 95.2129 155.499 95.4 156.152C95.7741 157.271 96.6159 159.696 96.2418 161.189C96.7094 159.51 96.3353 157.458 95.8676 155.965Z" fill="white"/>
<path fill-rule="evenodd" clip-rule="evenodd" d="M92.407 152.047C92.9682 154.286 91.1912 156.432 88.8529 156.711C87.0759 156.898 85.5794 156.525 83.8959 157.178C85.9535 155.779 85.9535 151.954 88.4788 150.928C89.4141 150.555 91.0976 150.462 92.3135 151.488C90.5365 151.861 89.3206 152.98 88.9465 153.353C88.3853 154.1 86.9823 155.592 85.86 155.965C87.1694 155.592 88.3853 154.566 89.227 153.633C90.0688 152.7 91.2847 152.234 92.407 152.047Z" fill="white"/>
<path fill-rule="evenodd" clip-rule="evenodd" d="M111.394 136.283C110.645 133.391 112.984 130.593 115.976 130.313C118.315 130.033 120.185 130.5 122.43 129.66C119.811 131.432 119.811 136.47 116.444 137.775C115.228 138.242 113.077 138.428 111.487 137.122C113.732 136.656 115.415 135.257 115.883 134.697C116.631 133.764 118.408 131.899 119.905 131.339C118.221 131.805 116.631 133.205 115.509 134.417C114.386 135.443 112.796 136.096 111.394 136.283Z" fill="white"/>
<path fill-rule="evenodd" clip-rule="evenodd" d="M147.589 103.821C150.021 103.168 153.014 102.236 154.885 100.37C153.014 102.049 149.273 102.795 147.402 103.075C146.374 103.262 143.194 104.288 140.855 106.9C140.294 103.915 142.165 101.209 143.755 99.9968C147.964 96.6387 154.511 100.463 158.813 98.411C156.007 100.65 155.165 103.448 153.108 106.247C150.489 109.885 144.971 110.724 141.791 107.646C143.287 105.967 145.345 104.474 147.589 103.821Z" fill="white"/>
<path fill-rule="evenodd" clip-rule="evenodd" d="M139.826 89.9225C139.452 92.7209 140.481 94.7731 140.762 97.4782C141.229 100.93 138.517 104.381 135.056 104.288C134.869 102.609 135.244 100.65 136.272 99.064C137.301 97.3849 138.517 95.2395 138.611 93.1873C138.424 95.1462 136.646 97.5715 135.805 98.6909C135.337 99.3438 134.028 101.676 134.121 104.381C132.251 102.982 131.783 100.463 132.064 98.8774C132.718 94.7731 138.424 93.4672 139.826 89.9225Z" fill="white"/>
<path fill-rule="evenodd" clip-rule="evenodd" d="M134.869 126.675C135.992 127.888 137.582 129.287 139.265 129.753C137.675 129.287 135.992 127.328 135.244 126.395C134.776 125.836 133.186 124.343 130.941 123.877C132.438 122.571 134.682 122.757 135.898 123.224C139.172 124.53 139.172 129.473 141.791 131.339C139.546 130.5 137.675 130.873 135.337 130.686C132.344 130.406 130.099 127.515 130.848 124.623C132.157 124.903 133.747 125.556 134.869 126.675Z" fill="white"/>
<path fill-rule="evenodd" clip-rule="evenodd" d="M133.747 113.149C137.021 111.843 140.481 115.481 143.661 115.015C141.416 115.855 140.388 117.534 138.517 118.933C136.179 120.705 132.531 120.239 131.128 117.627C132.344 116.787 133.934 116.228 135.524 116.321C137.208 116.414 139.265 116.321 140.855 115.575C139.359 116.321 136.834 116.041 135.618 115.855C134.963 115.761 132.718 115.761 130.754 117.067C130.848 115.015 132.531 113.709 133.747 113.149Z" fill="white"/>
<path fill-rule="evenodd" clip-rule="evenodd" d="M129.725 102.609C129.258 104.288 127.574 106.806 124.955 107.366C126.358 104.568 126.078 101.583 125.891 100.65C125.516 99.064 124.862 95.6126 125.61 93.4671C124.768 95.6126 124.955 98.5043 125.329 100.743C125.61 102.888 125.049 105.127 124.114 106.806C120.372 105.22 119.25 100.37 121.308 96.9185C122.991 94.2134 125.049 92.5343 125.891 89.3628C125.61 93.8403 131.035 97.9446 129.725 102.609Z" fill="white"/>
<path fill-rule="evenodd" clip-rule="evenodd" d="M150.582 77.0498C147.87 79.4751 143.287 79.102 141.416 76.117C142.819 74.9976 144.69 74.1581 146.654 74.1581C148.712 74.0648 151.237 73.8783 153.014 72.7589C151.237 73.6917 148.151 73.5984 146.654 73.5984C145.812 73.5984 143.1 73.785 140.855 75.464C140.949 73.0387 142.913 71.1731 144.409 70.5202C148.338 68.6546 152.827 72.7589 156.662 71.9194C153.949 73.132 152.734 75.1842 150.582 77.0498Z" fill="white"/>
<path fill-rule="evenodd" clip-rule="evenodd" d="M116.257 96.2656C114.948 98.5044 111.955 99.3439 109.897 97.7581C110.552 96.732 111.581 95.7059 112.89 95.2395C114.199 94.7731 115.883 94.0269 116.818 92.8142C115.883 93.8403 113.732 94.4933 112.796 94.8664C112.235 95.053 110.458 95.7992 109.336 97.385C108.868 95.706 109.71 94.1202 110.552 93.2807C112.703 91.1352 116.631 92.9075 119.063 91.415C117.566 92.9075 117.286 94.5866 116.257 96.2656Z" fill="white"/>
<path fill-rule="evenodd" clip-rule="evenodd" d="M108.307 108.485C108.775 109.698 108.775 111.097 108.494 112.217C106.062 111.843 104.659 109.138 105.408 106.806C105.969 104.941 106.998 103.728 106.998 101.769C107.465 104.381 111.3 105.967 111.206 108.952C111.206 110.071 110.552 111.75 109.055 112.403C109.429 110.538 108.868 108.858 108.588 108.299C108.12 107.459 107.278 105.5 107.372 104.194C107.278 105.594 107.839 107.179 108.307 108.485Z" fill="white"/>
<path fill-rule="evenodd" clip-rule="evenodd" d="M113.358 115.575C112.796 116.787 111.768 117.627 110.645 118.187C109.336 116.134 110.365 113.336 112.609 112.31C114.386 111.564 115.976 111.377 117.473 110.164C115.883 112.31 117.192 116.134 114.948 118C114.106 118.653 112.422 119.399 110.926 118.746C112.609 117.813 113.451 116.228 113.732 115.668C114.106 114.735 114.948 112.776 116.07 112.03C114.761 112.87 113.919 114.362 113.358 115.575Z" fill="white"/>
<path fill-rule="evenodd" clip-rule="evenodd" d="M104.098 116.787C104.94 117.534 105.875 119.119 105.501 120.798C104.285 119.213 102.508 118.56 101.947 118.373C100.918 118.093 98.767 117.534 97.8317 116.507C98.8606 117.627 100.544 118.28 101.854 118.746C103.163 119.213 104.285 120.145 104.94 121.171C102.976 122.851 99.8894 122.104 98.58 119.959C97.5512 118.28 97.177 116.601 95.587 115.202C97.9253 116.601 101.76 114.735 104.098 116.787Z" fill="white"/>
<path fill-rule="evenodd" clip-rule="evenodd" d="M103.724 93.0008C104.098 94.2135 104.098 95.5194 103.724 96.6388C101.479 96.1724 100.264 93.5605 101.012 91.3218C101.666 89.5494 102.602 88.4301 102.789 86.5645C103.163 89.083 106.717 90.8554 106.436 93.6538C106.343 94.6799 105.688 96.2656 104.285 96.9186C104.753 95.1463 104.285 93.4672 104.098 93.0008C103.724 92.1613 102.976 90.2024 103.163 88.9897C102.882 90.2024 103.256 91.7882 103.724 93.0008Z" fill="white"/>
<path fill-rule="evenodd" clip-rule="evenodd" d="M100.451 97.9447C100.544 98.8775 100.17 100.37 98.9541 101.116C99.1412 99.5304 98.4865 98.1312 98.2059 97.6648C97.7382 96.9186 96.8029 95.4261 96.8029 94.2134C96.8029 95.4261 97.3641 96.732 97.9253 97.7581C98.4865 98.7842 98.58 99.9035 98.3929 100.93C96.3353 100.836 94.8388 98.6909 95.3065 96.6387C95.5871 95.053 96.3353 93.8403 96.2418 92.1613C96.8965 94.4 100.264 95.4261 100.451 97.9447Z" fill="white"/>
<path fill-rule="evenodd" clip-rule="evenodd" d="M92.0329 105.127C91.6588 105.967 90.63 107.179 89.2271 107.273C90.1624 105.967 90.1624 104.381 90.1624 103.915C90.0688 103.075 89.9753 101.303 90.4429 100.277C89.8818 101.303 89.7882 102.795 89.7882 104.008C89.7882 105.127 89.3206 106.247 88.7594 107.086C86.9824 106.06 86.7018 103.448 88.0112 101.862C89.04 100.556 90.1623 99.8102 90.9106 98.3177C90.5365 100.37 93.0618 102.888 92.0329 105.127Z" fill="white"/>
<path fill-rule="evenodd" clip-rule="evenodd" d="M95.3065 125.556C94.8388 126.675 93.4359 128.261 91.5653 128.447C92.7812 126.675 92.8747 124.53 92.7812 123.877C92.6877 122.757 92.5006 120.332 93.2488 118.933C92.5006 120.332 92.4071 122.384 92.4071 123.877C92.4071 125.369 91.8459 126.862 91.0041 127.981C88.5724 126.582 88.1982 123.13 89.9753 120.892C91.3782 119.213 92.9683 118.187 93.81 116.134C93.2488 119.119 96.6159 122.384 95.3065 125.556Z" fill="white"/>
<path fill-rule="evenodd" clip-rule="evenodd" d="M143.194 85.2585C142.819 84.6988 141.51 83.1131 139.452 82.4601C141.042 81.434 143.1 81.8071 144.129 82.4601C147.028 84.1392 146.467 88.7099 148.712 90.7621C146.748 89.6427 144.877 89.8293 142.726 89.3629C140.014 88.7099 138.143 85.7249 139.265 83.2064C140.575 83.5795 141.978 84.419 142.819 85.6317C143.755 86.8443 145.064 88.4301 146.561 88.9898C145.158 88.2435 143.848 86.1913 143.194 85.2585Z" fill="white"/>
<path fill-rule="evenodd" clip-rule="evenodd" d="M131.783 84.8853C132.999 84.6988 134.121 85.5383 134.589 86.1913C135.898 87.9636 134.215 90.5754 135.056 92.4411C134.215 91.2284 132.999 90.8553 131.876 89.9225C130.38 88.8031 130.099 86.4711 131.502 85.2584C132.157 85.8181 132.812 86.7509 132.999 87.6837C133.186 88.7098 133.56 89.9225 134.308 90.762C133.654 90.0158 133.373 88.43 133.279 87.6837C133.186 87.2173 132.812 85.8181 131.783 84.8853Z" fill="white"/>
<path fill-rule="evenodd" clip-rule="evenodd" d="M133.654 72.2925C133.092 69.1209 137.021 66.8822 137.208 63.9905C137.582 66.1359 138.798 67.3486 139.639 69.3075C140.762 71.7328 139.639 74.811 137.114 75.5573C136.646 74.3446 136.366 72.8521 136.74 71.4529C137.114 70.0537 137.488 68.1881 137.114 66.6956C137.488 68.0948 136.74 70.3336 136.366 71.3596C136.179 71.9193 135.805 73.8782 136.459 75.8371C134.682 75.1842 133.841 73.5051 133.654 72.2925Z" fill="white"/>
<path fill-rule="evenodd" clip-rule="evenodd" d="M127.106 65.3897C126.732 65.6696 125.891 66.8822 125.704 68.3747C124.768 67.4419 124.768 65.9494 125.049 65.1099C125.797 62.8711 129.071 62.6846 130.193 60.819C129.725 62.3115 130.099 63.5241 130.006 65.1099C129.912 67.0688 128.135 68.7478 126.265 68.3747C126.358 67.4419 126.732 66.3225 127.387 65.5763C128.135 64.7368 128.977 63.6174 129.258 62.5913C128.884 63.6174 127.668 64.83 127.106 65.3897Z" fill="white"/>
<path fill-rule="evenodd" clip-rule="evenodd" d="M129.445 73.6916C130.006 72.9454 131.128 72.7588 131.783 72.8521C133.466 73.132 134.028 75.5573 135.431 76.1169C134.308 75.9304 133.373 76.3035 132.251 76.4901C130.754 76.6766 129.351 75.464 129.445 74.0648C130.193 74.0648 130.941 74.1581 131.596 74.6245C132.251 75.0909 133.186 75.5573 134.028 75.6505C133.186 75.5573 132.251 74.811 131.783 74.4379C131.502 74.2513 130.567 73.6916 129.445 73.6916Z" fill="white"/>
<path fill-rule="evenodd" clip-rule="evenodd" d="M122.804 66.0427C124.301 67.6284 124.207 70.3336 122.43 71.5462C121.775 70.7067 121.214 69.6806 121.121 68.468C121.027 67.2553 120.84 65.7628 120.185 64.7367C120.84 65.7628 120.84 67.6284 120.84 68.468C120.84 69.0277 121.027 70.6134 122.056 71.9193C120.559 71.9193 119.437 70.8 119.063 69.9605C117.847 67.6284 120.279 64.9233 119.624 62.6846C120.372 64.0838 121.588 64.7367 122.804 66.0427Z" fill="white"/>
<path fill-rule="evenodd" clip-rule="evenodd" d="M121.121 82.9265C120.653 82.7399 119.063 82.3668 117.473 82.8332C118.034 81.434 119.437 80.8743 120.372 80.6878C122.991 80.4079 124.675 83.5795 127.013 83.8593C125.329 84.0459 124.207 84.9787 122.617 85.6316C120.559 86.4712 118.128 85.4451 117.66 83.2996C118.689 82.9265 119.905 82.8332 121.027 83.2063C122.149 83.5795 123.646 83.9526 124.862 83.6727C123.646 83.8593 121.869 83.2063 121.121 82.9265Z" fill="white"/>
<path fill-rule="evenodd" clip-rule="evenodd" d="M134.215 51.4908C133.373 53.2632 133.747 54.9422 133.466 56.8078C133.092 59.2331 130.661 61.0987 128.229 60.4458C128.416 59.2331 129.071 58.0205 130.099 57.0877C131.128 56.1549 132.344 54.8489 132.812 53.543C132.344 54.8489 130.661 56.1549 129.819 56.8078C129.351 57.181 128.042 58.4869 127.574 60.3525C126.545 59.0466 126.732 57.181 127.2 56.2482C128.416 53.4497 132.531 53.6363 134.215 51.4908Z" fill="white"/>
<path fill-rule="evenodd" clip-rule="evenodd" d="M125.984 54.7557C125.891 54.0095 126.078 53.0767 126.452 52.3304C126.919 51.5842 127.387 50.5581 127.481 49.6253C127.387 50.4648 126.639 51.6775 126.265 52.1439C126.078 52.4237 125.516 53.5431 125.61 54.7557C124.768 54.1028 124.488 52.9834 124.581 52.3304C124.862 50.4648 127.387 49.8119 127.948 48.1328C127.761 49.4387 128.322 50.2783 128.509 51.5842C128.696 53.17 127.574 54.7557 125.984 54.7557Z" fill="white"/>
<path fill-rule="evenodd" clip-rule="evenodd" d="M111.955 73.5051C111.487 73.8782 110.178 75.1841 109.71 77.0498C108.681 75.7438 108.868 73.8782 109.336 72.9454C110.552 70.2403 114.761 70.4268 116.351 68.2814C115.509 70.0537 115.883 71.7328 115.602 73.5984C115.228 76.0237 112.796 77.8893 110.365 77.2363C110.552 76.0237 111.206 74.811 112.235 73.8782C113.264 72.9454 114.48 71.6395 114.948 70.3336C114.386 71.5462 112.703 72.9454 111.955 73.5051Z" fill="white"/>
<path fill-rule="evenodd" clip-rule="evenodd" d="M134.028 41.9763C134.869 40.4838 136.272 38.9913 137.956 38.2451C139.733 37.4055 141.978 36.2862 143.194 34.6071C141.978 36.0996 139.078 37.219 137.769 37.6854C137.021 37.9652 134.589 39.1779 133.186 41.5099C132.344 39.2712 133.466 36.9391 134.495 35.7265C137.395 32.555 142.913 34.7004 146.093 32.4617C144.222 34.5138 143.848 36.8459 142.632 39.3644C141.042 42.6293 136.834 44.0285 134.028 41.9763Z" fill="white"/>
<path fill-rule="evenodd" clip-rule="evenodd" d="M126.078 40.3905C125.329 39.2711 124.862 37.6853 124.955 36.1929C125.049 34.6071 125.142 32.6482 124.394 31.1557C125.049 32.5549 124.675 35.0735 124.488 36.1929C124.394 36.8458 124.394 38.9913 125.423 40.8569C123.552 40.577 122.243 38.898 121.869 37.7786C120.746 34.6071 124.301 31.4355 123.926 28.4506C124.675 30.596 126.171 31.6221 127.481 33.4877C129.164 35.6332 128.603 39.0846 126.078 40.3905Z" fill="white"/>
<path fill-rule="evenodd" clip-rule="evenodd" d="M117.566 46.547C117.286 45.4276 117.286 44.1217 117.847 42.909C118.408 41.6964 118.969 40.1106 118.782 38.8047C118.876 40.1106 117.941 41.9762 117.473 42.8157C117.192 43.2821 116.631 44.9612 116.912 46.7335C115.509 45.9873 114.948 44.3082 114.948 43.2821C114.948 40.4837 118.595 38.9912 119.156 36.4727C119.156 38.3383 120.092 39.6442 120.559 41.4165C121.308 43.6553 119.905 46.2671 117.566 46.547Z" fill="white"/>
<path fill-rule="evenodd" clip-rule="evenodd" d="M135.337 46.3605C134.963 45.8941 133.841 44.6814 132.064 44.1217C133.373 43.1889 135.056 43.4688 135.992 43.9352C138.517 45.1478 138.236 49.1589 140.201 50.7447C138.517 49.9051 136.927 50.185 135.15 49.8119C132.812 49.3455 131.128 47.0134 131.876 44.7747C132.999 45.0545 134.215 45.6142 135.056 46.6403C135.898 47.6664 137.114 48.8791 138.33 49.3455C137.208 48.7858 135.898 47.2 135.337 46.3605Z" fill="white"/>
<path fill-rule="evenodd" clip-rule="evenodd" d="M103.35 52.0506C103.911 52.8901 104.379 54.5692 103.537 55.9684C102.882 54.2893 101.479 53.2633 100.918 52.9834C100.076 52.517 98.2994 51.4909 97.6447 50.3716C98.2994 51.5842 99.6088 52.6103 100.731 53.3565C101.76 54.0095 102.508 55.1289 102.882 56.2482C100.731 57.2743 98.2059 55.8751 97.4576 53.6364C96.8965 51.864 96.99 50.2783 95.9612 48.6925C97.9253 50.4648 101.854 49.7186 103.35 52.0506Z" fill="white"/>
<path fill-rule="evenodd" clip-rule="evenodd" d="M93.81 55.7818C95.2129 56.2482 96.99 54.849 98.3929 55.6885C98.8606 55.9684 99.5153 56.7146 99.5153 57.6474C98.767 56.9945 97.7382 56.8079 97.4576 56.7146C96.8965 56.7146 95.7741 56.6213 95.1194 56.1549C95.7741 56.6213 96.7094 56.8079 97.4576 56.9012C98.2059 56.9945 98.8606 57.3676 99.3282 57.834C98.4864 58.8601 96.8029 58.7668 95.9612 57.834C95.0259 57.0877 94.7453 56.3415 93.81 55.7818Z" fill="white"/>
<path fill-rule="evenodd" clip-rule="evenodd" d="M112.048 54.1961C112.329 55.4087 112.142 56.8079 111.674 57.834C109.429 57.0878 108.401 54.2893 109.429 52.1439C110.271 50.4648 111.394 49.3455 111.674 47.4799C111.768 50.0917 115.228 52.1439 114.761 55.0356C114.574 56.0617 113.732 57.6474 112.235 58.1138C112.89 56.3415 112.609 54.6625 112.422 54.1028C112.142 53.17 111.487 51.2111 111.861 49.9052C111.394 51.2111 111.674 52.8901 112.048 54.1961Z" fill="white"/>
<path fill-rule="evenodd" clip-rule="evenodd" d="M101.854 66.6956C102.228 67.7217 102.228 69.4007 101.199 70.6134C100.918 68.7478 99.7959 67.4418 99.3282 67.0687C98.58 66.4158 97.0835 65.0166 96.7094 63.7106C96.99 65.0166 98.1123 66.3225 99.0476 67.3486C99.8894 68.2814 100.451 69.5873 100.544 70.7067C98.2059 71.1731 95.9612 69.3075 95.7741 66.8822C95.6806 65.0165 96.0547 63.5241 95.4 61.6584C96.8029 63.8972 100.825 63.9905 101.854 66.6956Z" fill="white"/>
<path fill-rule="evenodd" clip-rule="evenodd" d="M99.6088 16.3241C99.7959 13.3391 98.4865 10.7273 98.0188 9.98101C97.1771 8.67508 95.3065 5.87666 95.2129 3.73121C95.2129 5.96994 96.4288 8.48852 97.5512 10.3541C98.58 12.1265 98.8606 14.3652 98.6735 16.2308C94.8388 16.1375 92.0329 12.2197 92.5941 8.39524C93.0618 5.41026 94.2776 3.17152 93.9971 0.0932617C95.4 4.10433 101.666 5.78338 102.134 10.4474C102.321 12.0332 101.76 14.8316 99.6088 16.3241Z" fill="white"/>
<path fill-rule="evenodd" clip-rule="evenodd" d="M112.609 20.8016C110.739 23.1336 107.185 23.5067 105.127 21.4545C106.062 20.3352 107.465 19.4024 108.962 19.1225C110.552 18.7494 112.609 18.1897 113.825 17.0703C112.609 18.0964 110.084 18.4696 108.868 18.6561C108.214 18.7494 106.062 19.3091 104.472 20.9881C104.192 19.0292 105.501 17.2569 106.53 16.5107C109.336 14.4585 113.545 17.0703 116.444 15.7644C114.667 17.1636 114.106 18.936 112.609 20.8016Z" fill="white"/>
<path fill-rule="evenodd" clip-rule="evenodd" d="M95.5871 17.63C96.4288 18.283 97.4576 19.6822 97.2706 21.1747C96.0547 19.8688 94.2776 19.4024 93.81 19.3091C92.8747 19.2158 90.8171 18.8427 89.8818 18.0032C90.9106 18.936 92.5006 19.4024 93.81 19.6822C95.0259 19.962 96.1482 20.7083 96.8965 21.5478C95.3065 23.2269 92.4071 22.8537 90.9106 21.0814C89.7882 19.5889 89.2271 18.1897 87.7306 17.0703C89.9753 18.0964 93.2488 15.951 95.5871 17.63Z" fill="white"/>
<path fill-rule="evenodd" clip-rule="evenodd" d="M107.933 27.9841C107.372 27.8908 105.688 27.611 104.005 28.4505C104.379 26.8648 105.875 26.0252 106.904 25.7454C109.616 25.0924 111.955 28.264 114.48 28.1707C112.609 28.6371 111.674 29.8497 109.991 30.6893C107.933 31.9019 105.127 31.0624 104.285 28.9169C105.314 28.3572 106.624 28.0774 107.839 28.264C109.149 28.4505 110.832 28.6371 112.048 28.1707C110.832 28.6371 108.868 28.1707 107.933 27.9841Z" fill="white"/>
<path fill-rule="evenodd" clip-rule="evenodd" d="M104.659 43.4687C105.314 42.4426 106.624 42.1628 107.372 42.2561C109.523 42.4426 110.365 45.3343 112.142 45.894C110.739 45.8007 109.71 46.3604 108.307 46.547C106.53 46.8268 104.753 45.6142 104.659 43.8419C105.501 43.7486 106.53 43.8419 107.372 44.3083C108.214 44.7747 109.336 45.3343 110.365 45.3343C109.429 45.3343 108.12 44.4948 107.465 44.0284C107.185 43.9351 106.062 43.3754 104.659 43.4687Z" fill="white"/>
<path fill-rule="evenodd" clip-rule="evenodd" d="M103.631 39.9241C103.537 38.245 104.753 36.8458 105.688 36.1929C108.214 34.6071 111.674 37.1257 114.199 36.1929C112.516 37.2189 111.861 38.8047 110.552 40.2039C108.868 42.0695 105.688 42.2561 104.098 40.2972C104.94 39.4577 106.156 38.7114 107.559 38.5249C108.962 38.3383 110.739 37.9652 111.861 37.0324C110.739 37.8719 108.588 38.0585 107.559 38.0585C106.904 38.245 105.034 38.6182 103.631 39.9241Z" fill="white"/>
<path fill-rule="evenodd" clip-rule="evenodd" d="M98.9541 41.0434C98.9541 40.2039 99.2347 39.1778 99.7959 38.4316C100.357 37.6853 101.105 36.566 101.292 35.5399C101.105 36.4727 100.076 37.6853 99.6088 38.245C99.3282 38.5249 98.58 39.6442 98.4865 41.0434C97.5512 40.2039 97.4577 38.898 97.6447 38.1517C98.1124 36.0996 101.105 35.6332 101.947 33.9541C101.573 35.3533 102.041 36.3794 102.041 37.7786C102.228 39.6442 100.731 41.23 98.9541 41.0434Z" fill="white"/>
<path fill-rule="evenodd" clip-rule="evenodd" d="M83.7088 24.5328C83.1476 23.1336 82.2123 21.4546 80.9965 20.6151C82.1188 21.5479 82.9606 23.6933 83.3347 24.7194C83.5218 25.2791 84.457 27.0514 86.2341 28.1708C84.5506 28.8238 82.7735 27.9842 81.8382 27.1447C79.4065 24.9993 80.9965 20.8016 79.4065 18.4696C80.9965 19.8688 82.7735 20.1487 84.6441 21.0815C87.0759 22.2941 88.1047 25.3724 86.6082 27.6111C85.3923 26.8649 84.27 25.8388 83.7088 24.5328Z" fill="white"/>
<path fill-rule="evenodd" clip-rule="evenodd" d="M91.2847 31.9019C91.4718 30.3162 93.5294 29.7565 93.9971 28.4506C93.9035 29.4766 94.2776 30.2229 94.4647 31.249C94.6518 32.5549 93.7165 33.8608 92.4071 33.8608C92.3135 33.2079 92.4071 32.4616 92.7812 31.9019C93.1553 31.249 93.5294 30.4095 93.5294 29.6632C93.5294 30.4095 92.8747 31.3423 92.5941 31.7154C92.4071 31.9952 91.9394 32.8348 92.0329 33.8608C91.4718 33.3944 91.2847 32.4616 91.2847 31.9019Z" fill="white"/>
<path fill-rule="evenodd" clip-rule="evenodd" d="M91.3782 22.5739C92.5941 23.5067 92.9682 25.3723 91.8459 26.4917C91.2847 26.0253 90.7235 25.279 90.5365 24.5328C90.3494 23.6933 89.9753 22.6672 89.3206 22.0142C89.8818 22.6672 90.1624 23.9731 90.2559 24.6261C90.3494 24.9992 90.63 26.1185 91.5653 26.8648C90.5365 27.0514 89.6012 26.3984 89.1335 25.8387C88.0112 24.3462 89.3206 22.1075 88.5724 20.615C89.4141 21.5478 90.3494 21.8276 91.3782 22.5739Z" fill="white"/>
<path fill-rule="evenodd" clip-rule="evenodd" d="M108.868 81.9004C111.113 82.087 112.609 84.419 112.142 86.6577C111.768 88.43 111.019 89.6427 111.113 91.5083C110.458 89.1763 106.811 87.9636 106.624 85.2585C106.53 84.2324 106.998 82.6466 108.307 81.9004C108.12 83.6727 108.775 85.1652 109.055 85.6316C109.523 86.3779 110.552 88.0569 110.552 89.3628C110.645 88.0569 109.991 86.5644 109.429 85.4451C108.775 84.3257 108.681 83.0198 108.868 81.9004Z" fill="white"/>
<path fill-rule="evenodd" clip-rule="evenodd" d="M103.256 77.0498C102.882 75.0909 105.314 73.5984 105.408 71.7328C105.688 73.0387 106.436 73.8782 106.998 74.9976C107.746 76.4901 107.091 78.449 105.408 79.0087C105.127 78.2624 104.94 77.3296 105.127 76.3968C105.314 75.464 105.595 74.3446 105.314 73.4118C105.501 74.3446 105.127 75.7439 104.94 76.3035C104.846 76.6767 104.566 77.8893 105.034 79.102C103.911 78.8221 103.35 77.7027 103.256 77.0498Z" fill="white"/>
<path fill-rule="evenodd" clip-rule="evenodd" d="M63.7871 27.5178C62.2906 27.4245 59.2041 27.2379 57.5206 26.0253C59.2041 27.3312 61.7294 27.7976 63.6935 28.0775C65.6576 28.3573 67.4347 29.3834 68.6506 30.596C66.4059 33.3945 61.9165 33.2079 59.4847 30.596C57.5206 28.5439 56.5853 26.3051 54.1535 24.8127C57.8947 26.0253 62.6647 22.3874 66.4059 24.6261C67.8088 25.4656 69.4924 27.4245 69.3988 29.8498C67.3412 28.0775 64.7224 27.5178 63.7871 27.5178Z" fill="white"/>
<path fill-rule="evenodd" clip-rule="evenodd" d="M75.4782 28.8237C74.8235 28.3573 73.3271 27.238 72.9529 26.2119C73.3271 27.3312 74.4494 28.3573 75.2912 29.1036C76.1329 29.8498 76.6941 30.8759 76.8812 31.8087C74.9171 32.4617 72.8594 30.9692 72.4853 29.0103C72.2047 27.4245 72.3918 26.1186 71.6435 24.6261C73.0465 26.3984 76.5071 26.1186 77.5359 28.264C77.91 29.1036 78.1906 30.5961 77.3488 31.7154C76.9747 30.1297 75.8523 29.1036 75.4782 28.8237Z" fill="white"/>
<path fill-rule="evenodd" clip-rule="evenodd" d="M84.8312 34.0474C84.5506 34.2339 83.7088 34.9802 83.4282 36.1928C82.8671 35.3533 82.9606 34.2339 83.2412 33.6743C83.9894 32.0885 86.6082 32.275 87.5435 30.9691C86.9824 32.0885 87.1694 33.0213 86.9824 34.2339C86.7018 35.7264 85.2053 36.7525 83.7088 36.2861C83.8959 35.5399 84.27 34.7936 84.9247 34.3272C85.5794 33.7675 86.3277 33.0213 86.6082 32.1818C86.3277 32.928 85.2988 33.6743 84.8312 34.0474Z" fill="white"/>
<path fill-rule="evenodd" clip-rule="evenodd" d="M62.5712 38.1517C63.6935 37.4055 63.9741 36.3794 64.8159 35.3533C65.8447 34.0474 67.9023 33.8608 69.0247 35.0735C68.4635 35.6332 67.7153 36.1928 66.8735 36.3794C65.9382 36.566 64.8159 36.8458 64.1612 37.4988C64.9094 36.9391 66.3123 36.7525 66.967 36.6592C67.3412 36.566 68.557 36.2861 69.3988 35.3533C69.4923 36.4727 68.8376 37.4055 68.1829 37.8719C66.4994 38.9913 64.2547 37.4988 62.5712 38.1517Z" fill="white"/>
<path fill-rule="evenodd" clip-rule="evenodd" d="M54.9953 35.3534C55.65 36.1929 56.3047 37.9652 55.65 39.551C54.7147 37.7787 53.1247 36.8459 52.5635 36.566C51.6282 36.1929 49.6641 35.2601 48.8223 34.0475C49.5706 35.2601 51.1606 36.2862 52.3765 36.9392C53.5923 37.5921 54.4341 38.7115 54.9953 39.8309C52.8441 41.1368 49.9447 39.9241 49.0094 37.4988C48.2612 35.6332 48.1676 33.9542 46.9518 32.3684C49.1029 34.1407 53.1247 33.0214 54.9953 35.3534Z" fill="white"/>
<path fill-rule="evenodd" clip-rule="evenodd" d="M60.7941 36.8458C61.0747 37.4988 61.0747 38.245 60.8876 38.898C59.5782 38.7114 58.83 37.219 59.2976 35.913C59.6718 34.8869 60.1394 34.234 60.2329 33.2079C60.5135 34.6071 62.4776 35.5399 62.4776 37.1257C62.4776 37.6854 62.1035 38.6182 61.2618 38.9913C61.5423 37.9652 61.1682 37.0324 61.0747 36.7526C60.8876 36.2861 60.3265 35.2601 60.42 34.5138C60.2329 35.2601 60.5135 36.1929 60.7941 36.8458Z" fill="white"/>
<path fill-rule="evenodd" clip-rule="evenodd" d="M68.1829 41.6031C69.3988 40.8569 69.4923 38.6182 70.9888 38.0585C71.55 37.8719 72.4853 37.8719 73.14 38.4316C72.1112 38.6182 71.3629 39.2711 71.1759 39.4577C70.8017 39.8308 70.0535 40.6703 69.3053 40.8569C70.0535 40.6703 70.8017 40.1107 71.2694 39.551C71.8306 39.0846 72.4853 38.8047 73.14 38.7114C73.4206 40.0174 72.2982 41.23 70.9888 41.3233C70.0535 41.5099 69.2117 41.23 68.1829 41.6031Z" fill="white"/>
<path fill-rule="evenodd" clip-rule="evenodd" d="M66.78 41.6964C66.8735 42.2561 66.8735 42.8158 66.5929 43.2822C65.5641 43.0023 65.19 41.7897 65.6576 40.8569C66.0318 40.1106 66.4994 39.6442 66.5929 38.8047C66.6865 39.9241 68.1829 40.8569 67.9024 42.0695C67.8088 42.5359 67.4347 43.1889 66.78 43.3754C67.0606 42.6292 66.8735 41.8829 66.8735 41.6031C66.78 41.23 66.4994 40.3905 66.5929 39.8308C66.4994 40.3905 66.6865 41.1367 66.78 41.6964Z" fill="white"/>
<path fill-rule="evenodd" clip-rule="evenodd" d="M77.7229 48.1328C76.5071 48.5992 75.2912 48.5992 74.2624 49.4387C75.4782 48.0395 74.8235 45.2411 76.5071 44.1217C77.1618 43.6553 78.2841 43.2822 79.313 43.8419C78.0971 44.4016 77.4424 45.4276 77.2553 45.8008C76.9747 46.4537 76.2265 47.7597 75.4782 48.2261C76.32 47.7597 76.9747 46.7336 77.5359 45.8941C78.0035 45.1478 78.7518 44.4948 79.5935 44.215C80.2482 45.6142 79.3129 47.5731 77.7229 48.1328Z" fill="white"/>
<path fill-rule="evenodd" clip-rule="evenodd" d="M82.3994 39.8308C82.3059 41.5098 80.4353 42.6292 78.7518 42.2561C77.4424 41.9762 76.5071 41.3233 75.1041 41.4166C76.8812 40.9502 77.8165 38.245 79.8741 38.1517C80.6224 38.1517 81.8382 38.4316 82.3994 39.4577C81.09 39.2711 79.9677 39.7375 79.5935 40.0173C79.0324 40.3905 77.7229 41.1367 76.7877 41.0434C77.8165 41.1367 78.9388 40.6703 79.7806 40.2039C80.6224 39.7375 81.5576 39.6442 82.3994 39.8308Z" fill="white"/>
<path fill-rule="evenodd" clip-rule="evenodd" d="M81.2771 27.9842C81.2771 28.4506 81.1835 29.1969 80.5288 29.57C80.6224 28.7305 80.2482 28.0775 80.1547 27.8909C79.9677 27.5178 79.4065 26.7716 79.4065 26.2119C79.4065 26.7716 79.6871 27.5178 79.9677 27.9842C80.2482 28.4506 80.3418 29.1036 80.2482 29.57C79.2194 29.57 78.4712 28.4506 78.6582 27.4245C78.8453 26.585 79.1259 26.0253 79.1259 25.1858C79.5 26.3052 81.1835 26.7716 81.2771 27.9842Z" fill="white"/>
<path fill-rule="evenodd" clip-rule="evenodd" d="M83.2412 48.3194C82.68 48.5059 80.9965 49.4387 79.9677 51.1178C79.4065 49.532 80.1547 47.853 80.903 47.0134C82.9606 44.7747 86.8888 46.1739 89.1335 44.5881C87.8241 46.0806 87.6371 47.7597 86.7018 49.532C85.5794 51.7707 82.5865 52.8901 80.5288 51.3976C81.09 50.2783 82.1188 49.2522 83.3347 48.6925C84.6441 48.1328 86.2341 47.2933 87.0759 46.0806C86.3277 47.1067 84.27 47.9462 83.2412 48.3194Z" fill="white"/>
<path fill-rule="evenodd" clip-rule="evenodd" d="M73.6076 55.3154C71.8306 55.2222 70.6147 53.4498 70.9888 51.7708C71.2694 50.3716 71.8306 49.4388 71.6435 48.0396C72.2047 49.8119 75.1041 50.6514 75.2912 52.7969C75.3847 53.5431 75.1041 54.849 74.0753 55.502C74.1688 54.1028 73.6076 52.9834 73.4206 52.6103C73.0465 52.0506 72.2047 50.7447 72.2047 49.7186C72.2047 50.7447 72.7659 51.8641 73.2335 52.7036C73.6076 53.5431 73.7012 54.4759 73.6076 55.3154Z" fill="white"/>
<path fill-rule="evenodd" clip-rule="evenodd" d="M80.8094 56.1549C80.3418 56.0616 78.8453 56.1549 77.4424 56.9944C77.6294 55.5952 78.7518 54.6624 79.5935 54.2893C81.8382 53.3564 84.27 55.875 86.4212 55.5019C84.9247 56.1549 84.1765 57.2742 82.8671 58.207C81.2771 59.4197 78.7518 59.1398 77.7229 57.3675C78.5647 56.8078 79.5935 56.3414 80.7159 56.4347C81.8382 56.4347 83.3347 56.4347 84.3635 55.875C83.3347 56.4347 81.5576 56.2481 80.8094 56.1549Z" fill="white"/>
<path fill-rule="evenodd" clip-rule="evenodd" d="M84.1765 61.0055C83.8024 61.1921 82.7735 61.7518 82.2124 62.7779C81.8382 61.7518 82.2124 60.7257 82.68 60.166C83.8959 58.6735 86.4212 59.513 87.8241 58.4869C86.9824 59.4197 86.8888 60.5391 86.4212 61.6585C85.7665 63.151 83.8959 63.8039 82.5865 62.9644C82.9606 62.3114 83.5218 61.5652 84.27 61.1921C85.0182 60.819 86.0471 60.2593 86.5147 59.513C86.0471 60.2593 84.7377 60.819 84.1765 61.0055Z" fill="white"/>
<path fill-rule="evenodd" clip-rule="evenodd" d="M54.9018 56.4348C53.4053 55.9684 52.2829 55.1288 50.6929 55.0356C52.8441 54.6624 54.247 51.4909 56.6788 51.5842C57.6141 51.5842 59.017 52.1439 59.5782 53.3565C57.9882 52.9834 56.5853 53.4498 56.1176 53.7296C55.3694 54.1027 53.7794 54.849 52.657 54.7557C53.8729 54.9423 55.1823 54.4759 56.3047 54.0095C57.3335 53.6363 58.4559 53.6363 59.4847 53.9162C59.1106 55.8751 56.8659 57.0877 54.9018 56.4348Z" fill="white"/>
<path fill-rule="evenodd" clip-rule="evenodd" d="M59.2041 47.3866C59.8588 47.853 60.3265 48.506 60.6071 49.1589C59.2977 49.8119 57.7077 48.8791 57.24 47.4799C56.8659 46.3605 56.9594 45.4277 56.3047 44.4016C57.4271 45.521 59.8588 45.0546 60.7941 46.5471C61.1682 47.1067 61.4488 48.1328 60.9812 48.9724C60.5135 47.9463 59.6718 47.2933 59.3912 47.1067C58.83 46.8269 57.8012 46.1739 57.3335 45.4277C57.6141 46.2672 58.4559 46.9202 59.2041 47.3866Z" fill="white"/>
<path fill-rule="evenodd" clip-rule="evenodd" d="M68.0894 57.4609C68.7441 56.9945 69.96 56.5281 71.0824 56.9945C69.8665 57.6474 69.1182 58.7668 68.9312 59.2332C68.6506 59.8862 67.9959 61.3787 67.1541 61.9383C67.9959 61.3787 68.7441 60.2593 69.2118 59.4198C69.6794 58.5802 70.4277 57.9273 71.2694 57.5541C72.2047 59.1399 71.3629 61.1921 69.6794 61.8451C68.37 62.4047 67.1541 62.498 66.0318 63.3375C67.2477 61.7518 66.4059 58.7668 68.0894 57.4609Z" fill="white"/>
<path fill-rule="evenodd" clip-rule="evenodd" d="M40.7788 55.6885C40.7788 52.7968 39.3759 50.4648 38.8147 49.7185C37.8794 48.5059 35.9153 45.9873 35.7282 43.9351C35.9153 46.0806 37.2247 48.4126 38.3471 50.0917C39.4694 51.7707 39.8435 53.8229 39.75 55.5952C36.0088 55.7818 33.1094 52.2371 33.4835 48.5059C33.7641 45.6142 34.7929 43.3755 34.2318 40.4838C35.8218 44.215 41.9012 45.4276 42.7429 49.8118C43.1171 51.4909 42.8365 54.1027 40.7788 55.6885Z" fill="white"/>
<path fill-rule="evenodd" clip-rule="evenodd" d="M47.9806 58.3936C49.1965 59.0466 50.0382 60.1659 50.5994 61.2853C48.4482 62.5912 45.5488 61.3786 44.6135 58.9533C43.8653 57.0877 43.7718 55.4086 42.5559 53.8229C44.7071 55.5952 48.7288 54.3826 50.5994 56.8079C51.2541 57.6474 51.9088 59.4197 51.2541 61.0055C50.3188 59.2331 48.7288 58.3003 48.1676 58.0205C47.2323 57.6474 45.2682 56.7146 44.4265 55.5019C45.1747 56.7146 46.7647 57.7407 47.9806 58.3936Z" fill="white"/>
<path fill-rule="evenodd" clip-rule="evenodd" d="M57.0529 59.6995C56.7723 58.3936 57.5206 57.181 58.1753 56.6213C59.9523 55.1288 62.8518 56.6213 64.8159 55.6885C63.6 56.7146 63.3194 57.9272 62.3841 59.2331C61.2617 60.8189 58.9235 61.3786 57.427 59.9794C57.9882 59.2331 58.83 58.4869 59.8588 58.2071C60.8876 57.9272 62.197 57.4608 63.0388 56.6213C62.2906 57.3675 60.607 57.7406 59.8588 57.9272C59.4847 58.0205 58.0817 58.4869 57.0529 59.6995Z" fill="white"/>
<path fill-rule="evenodd" clip-rule="evenodd" d="M38.0665 61.6585C36.57 61.3786 35.1671 61.9383 34.7929 62.1249C34.0447 62.498 32.5482 63.2443 31.5194 63.2443C32.6418 63.3375 33.9512 62.8711 34.98 62.4047C35.9153 61.9383 37.0376 61.9383 37.9729 62.1249C37.6924 64.0838 35.6347 65.2964 33.6706 64.7367C32.1741 64.3636 31.1453 63.6174 29.5553 63.6174C31.6129 63.151 32.8288 60.0727 35.2606 60.0727C36.0088 59.9794 37.4118 60.4458 38.0665 61.6585Z" fill="white"/>
<path fill-rule="evenodd" clip-rule="evenodd" d="M32.0806 71.8261C34.4188 70.8933 35.2606 67.0688 37.9729 66.6024C39.0018 66.4158 40.6853 66.6957 41.6206 67.9083C39.8435 67.9083 38.3471 68.7478 37.8794 69.121C37.1312 69.6806 35.5412 70.8933 34.2318 70.9866C35.5412 70.8933 37.0377 70.0538 38.0665 69.4008C39.0953 68.7478 40.4047 68.468 41.5271 68.5613C41.6206 70.8933 39.3759 72.6656 37.0377 72.4791C35.3541 72.1992 33.9512 71.5463 32.0806 71.8261Z" fill="white"/>
<path fill-rule="evenodd" clip-rule="evenodd" d="M57.8012 64.177C60.0459 64.7367 62.8518 62.3114 65.0965 63.4308C65.9382 63.8972 67.0606 64.9233 67.1541 66.4158C65.8447 65.3897 64.1612 65.2031 63.6935 65.2031C62.8518 65.2031 60.8876 65.2031 59.8588 64.6434C60.8876 65.2964 62.4776 65.483 63.6935 65.5763C64.8159 65.6695 65.9382 66.1359 66.78 66.7889C65.5641 68.5612 62.8518 68.7478 61.2618 67.2553C60.0459 66.2292 59.3912 65.0166 57.8012 64.177Z" fill="white"/>
<path fill-rule="evenodd" clip-rule="evenodd" d="M64.6288 79.3819C66.1253 77.9827 65.7512 74.8111 67.7153 73.6917C68.4635 73.3186 69.7729 73.0388 70.8953 73.6917C69.4923 74.1581 68.557 75.2775 68.37 75.6506C67.9959 76.3036 67.0606 77.7028 66.1253 78.0759C67.1541 77.6095 67.9959 76.5834 68.6506 75.7439C69.3053 74.9044 70.2406 74.3447 71.0823 74.1581C71.8306 75.9305 70.5212 77.8894 68.7441 78.3558C67.2476 78.7289 65.9382 78.6356 64.6288 79.3819Z" fill="white"/>
<path fill-rule="evenodd" clip-rule="evenodd" d="M74.6365 67.3486C73.7012 68.3747 72.0177 68.1881 71.1759 67.0687C70.5212 66.2292 70.2406 65.3897 69.3053 64.7367C70.6147 65.2964 72.5788 64.0837 73.8882 65.0165C74.3559 65.3897 75.0106 66.1359 74.8235 67.0687C74.0753 66.3225 73.14 66.0426 72.7659 66.0426C72.2047 65.9494 71.0824 65.7628 70.5212 65.2964C71.0824 65.8561 72.0177 66.0426 72.7659 66.2292C73.6077 66.4158 74.1688 66.8822 74.6365 67.3486Z" fill="white"/>
<path fill-rule="evenodd" clip-rule="evenodd" d="M61.5424 73.5052C62.8518 72.8522 63.2259 70.6135 64.8159 70.2404C65.3771 70.1471 66.4059 70.1471 66.9671 70.8933C65.9382 70.8933 65.0965 71.453 64.8159 71.7329C64.4418 72.106 63.5065 72.8522 62.7582 72.9455C63.5065 72.8522 64.3482 72.2925 64.9094 71.8261C65.4706 71.3597 66.2188 71.1732 66.8735 71.1732C66.9671 72.4791 65.7512 73.5985 64.4418 73.5985C63.5065 73.5985 62.6647 73.2253 61.5424 73.5052Z" fill="white"/>
<path fill-rule="evenodd" clip-rule="evenodd" d="M78.6582 84.4189C78.2841 83.2995 78.3776 82.0869 78.7518 81.1541C80.8094 81.6205 81.9318 84.0458 81.09 86.0047C80.5288 87.5904 79.5935 88.6165 79.4065 90.2956C79.1259 88.0569 75.9459 86.3778 76.1329 83.8592C76.2265 82.9264 76.8812 81.5272 78.1906 80.9675C77.7229 82.5533 78.1906 84.0458 78.3776 84.5122C78.7518 85.3517 79.4065 87.0308 79.2194 88.1501C79.4065 87.0308 79.0323 85.5383 78.6582 84.4189Z" fill="white"/>
<path fill-rule="evenodd" clip-rule="evenodd" d="M82.7735 70.3336C82.4929 70.4268 81.5577 70.8932 80.9029 71.9193C80.5288 70.9865 80.9965 70.0537 81.4641 69.5873C82.5865 68.2814 84.8312 69.1209 86.1406 68.2814C85.3924 69.1209 85.2988 70.0537 84.7377 71.0798C84.0829 72.3857 82.3994 72.9454 81.2771 72.1059C81.6512 71.4529 82.2124 70.8932 82.8671 70.6134C83.6153 70.3335 84.4571 69.7739 84.9247 69.1209C84.4571 69.6806 83.2412 70.147 82.7735 70.3336Z" fill="white"/>
<path fill-rule="evenodd" clip-rule="evenodd" d="M68.9312 85.0719C68.0894 82.8332 70.6147 80.5944 70.3341 78.449C70.8953 79.9415 71.9241 80.6877 72.8594 81.9936C73.9818 83.5794 73.6076 86.098 71.8306 86.9375C71.2694 86.098 70.8953 85.0719 70.9888 83.9525C71.0823 82.8332 71.0823 81.434 70.6147 80.4079C71.0823 81.434 70.8018 83.113 70.7082 83.9525C70.6147 84.4189 70.6147 85.9114 71.3629 87.2174C70.0535 87.1241 69.2118 85.9114 68.9312 85.0719Z" fill="white"/>
<path fill-rule="evenodd" clip-rule="evenodd" d="M45.2682 81.6205C43.1171 81.434 41.7141 79.102 42.1818 76.9565C42.5559 75.2775 43.3977 74.0648 43.3041 72.2925C43.8653 74.6245 47.4194 75.8371 47.4194 78.449C47.4194 79.3818 47.0453 80.9676 45.7359 81.7138C46.0165 80.0348 45.3618 78.5423 45.0812 78.0759C44.6135 77.3296 43.6782 75.6506 43.7718 74.4379C43.6782 75.7439 44.2394 77.1431 44.8006 78.2624C45.3618 79.2885 45.4553 80.5944 45.2682 81.6205Z" fill="white"/>
<path fill-rule="evenodd" clip-rule="evenodd" d="M33.5771 80.5012C31.5194 79.102 29.1812 78.9154 28.4329 78.9154C27.1235 79.0087 24.4112 79.102 22.8212 78.2624C24.4112 79.1953 26.6559 79.3818 28.4329 79.3818C30.1165 79.3818 31.8 80.1281 33.0159 81.0609C31.3324 83.766 27.4041 84.0458 24.9724 81.9937C23.0082 80.4079 21.9794 78.5423 19.6412 77.5162C23.0082 78.1692 26.9365 74.5312 30.3971 76.117C31.7065 76.77 33.4835 78.3557 33.5771 80.5012Z" fill="white"/>
<path fill-rule="evenodd" clip-rule="evenodd" d="M30.5841 97.0119C32.9223 96.0791 33.7641 92.2546 36.4765 91.7882C37.5053 91.6016 39.1888 91.8815 40.1241 93.0941C38.347 93.0941 36.8506 93.9336 36.3829 94.3068C35.6347 94.8664 34.0447 96.0791 32.7353 96.1724C34.0447 96.0791 35.5412 95.2396 36.57 94.5866C37.5988 93.9336 38.9082 93.6538 40.0306 93.7471C40.1241 96.0791 37.8794 97.8514 35.5412 97.6649C33.7641 97.385 32.4547 96.7321 30.5841 97.0119Z" fill="white"/>
<path fill-rule="evenodd" clip-rule="evenodd" d="M56.5853 86.751C54.8082 86.751 53.4988 84.9787 53.6859 83.2063C53.8729 81.8071 54.4341 80.781 54.2471 79.3818C54.9018 81.1542 57.8012 81.9004 58.0818 84.0459C58.1753 84.7921 57.9882 86.098 56.9594 86.8443C57.0529 85.4451 56.3982 84.3257 56.1177 83.9526C55.65 83.3929 54.8082 82.087 54.7147 81.1542C54.7147 82.1803 55.3694 83.2996 55.8371 84.1391C56.4918 84.8854 56.6788 85.8182 56.5853 86.751Z" fill="white"/>
<path fill-rule="evenodd" clip-rule="evenodd" d="M48.7288 82.0869C50.5059 82.2735 51.6282 84.2324 51.1606 85.9114C50.7865 87.2174 50.1318 88.2435 50.1318 89.6427C49.6641 87.7771 46.8582 86.751 46.8582 84.6055C46.8582 83.8593 47.2324 82.5533 48.2612 81.9937C47.9806 83.3929 48.5418 84.6055 48.7288 84.9786C49.103 85.6316 49.7577 86.9375 49.7577 87.9636C49.8512 86.9375 49.3835 85.7249 49.0094 84.8854C48.5418 83.9525 48.5418 82.9265 48.7288 82.0869Z" fill="white"/>
<path fill-rule="evenodd" clip-rule="evenodd" d="M59.7653 94.3067C59.7653 91.7882 63.0388 90.5755 63.5065 88.4301C63.5065 90.1091 64.2547 91.2285 64.7223 92.721C65.2835 94.6799 63.9741 96.9186 61.9165 97.1984C61.7294 96.1723 61.7294 95.053 62.1971 94.0269C62.6647 93.0008 63.2259 91.6016 63.0388 90.3889C63.1323 91.5083 62.2906 93.0941 61.8229 93.8403C61.5423 94.3067 61.0747 95.7059 61.3553 97.2917C60.2329 96.6387 59.7653 95.2395 59.7653 94.3067Z" fill="white"/>
<path fill-rule="evenodd" clip-rule="evenodd" d="M61.1682 86.0047C60.9812 86.098 60.3265 86.6577 60.1394 87.4039C59.7653 86.8442 59.8588 86.0047 60.1394 85.6316C60.7006 84.5122 62.4777 84.6988 63.2259 83.8593C62.8518 84.6055 62.9453 85.2585 62.6647 86.098C62.3841 87.1241 61.3553 87.777 60.3265 87.4039C60.42 86.9375 60.7941 86.3778 61.2618 86.0047C61.7294 85.6316 62.2906 85.1652 62.5712 84.6055C62.2906 85.2585 61.5424 85.7249 61.1682 86.0047Z" fill="white"/>
<path fill-rule="evenodd" clip-rule="evenodd" d="M37.0377 77.7961C36.57 76.2103 38.3471 74.8111 38.16 73.4119C38.4406 74.438 39.1888 74.9976 39.75 75.8372C40.4983 76.9565 40.1241 78.6356 38.9082 79.1953C38.5341 78.6356 38.3471 77.8893 38.4406 77.1431C38.5341 76.3968 38.5341 75.464 38.2535 74.7178C38.5341 75.3708 38.3471 76.5834 38.2535 77.1431C38.2535 77.4229 38.16 78.3557 38.6277 79.2885C37.7859 79.1953 37.2247 78.3557 37.0377 77.7961Z" fill="white"/>
<path fill-rule="evenodd" clip-rule="evenodd" d="M54.7147 98.3178C55.0888 101.116 52.5635 103.635 49.6641 103.542C47.4194 103.542 45.6423 102.889 43.3976 103.448C46.11 101.956 46.6712 97.1985 50.0382 96.3589C51.2541 95.9858 53.3118 96.1724 54.7147 97.5716C52.47 97.7581 50.7865 98.9708 50.3188 99.4372C49.4771 100.183 47.6065 101.862 46.11 102.236C47.7 101.956 49.3835 100.836 50.6929 99.8103C51.7218 98.7842 53.3118 98.3178 54.7147 98.3178Z" fill="white"/>
<path fill-rule="evenodd" clip-rule="evenodd" d="M13.4682 89.5494C14.5906 91.0419 15.6194 94.0269 14.31 96.6388C12.9071 93.6538 10.1947 91.9747 9.25941 91.5083C7.66941 90.7621 4.39588 89.083 3.08647 87.1241C4.30235 89.2696 6.92118 90.9486 8.97882 92.068C10.9429 93.1874 12.4394 95.1463 13.2812 97.0119C9.54 99.0641 4.77 96.9186 3.27353 92.9075C2.05765 89.736 2.05765 86.9376 0 84.2324C3.46059 87.2174 10.3818 85.4451 13.4682 89.5494Z" fill="white"/>
<path fill-rule="evenodd" clip-rule="evenodd" d="M37.9729 87.4972C38.8147 87.7771 39.4694 88.43 39.9371 89.1763C38.6276 90.2024 36.6635 89.6427 35.8218 88.1502C35.1671 87.0308 34.98 85.9114 34.0447 84.9786C35.5412 85.9114 38.0665 84.7921 39.4694 86.1913C39.9371 86.751 40.4982 87.7771 40.2176 88.8031C39.4694 87.7771 38.3471 87.2174 37.9729 87.1241C37.3182 86.9375 36.0088 86.4711 35.3541 85.8182C36.1024 86.6577 37.1312 87.2174 37.9729 87.4972Z" fill="white"/>
<path fill-rule="evenodd" clip-rule="evenodd" d="M24.5047 95.7993C21.9794 94.6799 21.2312 91.4151 22.6341 89.0831C23.7565 87.2174 25.1594 86.0981 25.8141 84.0459C25.627 87.0309 29.2747 89.8293 28.4329 93.0008C28.0588 94.1202 26.9365 95.7993 25.1594 96.2657C26.0947 94.4 25.9076 92.3479 25.8141 91.6949C25.627 90.5755 25.1594 88.2435 25.627 86.8443C25.0659 88.3368 25.1594 90.2957 25.3465 91.7882C25.5335 93.0941 25.1594 94.6799 24.5047 95.7993Z" fill="white"/>
<path fill-rule="evenodd" clip-rule="evenodd" d="M12.9071 101.303C14.4971 100.93 17.1159 101.023 18.7994 102.889C15.9935 103.075 13.7488 104.661 13.0941 105.221C11.9718 106.247 9.63352 108.299 7.6694 108.672C9.72705 108.392 11.8782 106.9 13.4682 105.594C14.9647 104.381 17.0223 103.821 18.7994 103.821C19.2671 107.366 15.9935 110.538 12.3459 110.444C9.44646 110.351 7.20176 109.512 4.39587 110.258C7.94999 108.392 8.69823 102.329 12.9071 101.303Z" fill="white"/>
<path fill-rule="evenodd" clip-rule="evenodd" d="M16.2741 122.291C17.8641 121.918 20.4829 122.011 22.1665 123.877C19.3606 124.063 17.1159 125.649 16.4612 126.209C15.3388 127.235 13.0006 129.287 11.0365 129.66C13.0941 129.38 15.2453 127.888 16.8353 126.582C18.3318 125.369 20.3894 124.809 22.1665 124.809C22.6341 128.354 19.3606 131.526 15.7129 131.432C12.8135 131.339 10.5688 130.5 7.76294 131.246C11.3171 129.473 12.0653 123.41 16.2741 122.291Z" fill="white"/>
<path fill-rule="evenodd" clip-rule="evenodd" d="M63.6935 113.056C66.9671 110.164 72.3918 112.963 75.8523 111.097C73.7012 113.056 73.14 115.295 71.55 117.72C69.5859 120.798 65.19 121.731 62.4776 119.306C63.5065 117.907 65.0965 116.507 66.9671 115.948C68.9312 115.295 71.2694 114.362 72.7659 112.87C71.3629 114.269 68.2765 115.108 66.8735 115.388C66.0318 115.575 63.5065 116.507 61.7294 118.746C61.1682 116.414 62.4776 114.082 63.6935 113.056Z" fill="white"/>
<path fill-rule="evenodd" clip-rule="evenodd" d="M57.9882 113.056C57.5206 113.523 56.3047 114.922 56.0241 116.974C54.8082 115.668 54.8082 113.802 55.1823 112.776C56.1176 109.885 60.5135 109.605 61.9165 107.179C61.2618 109.138 61.7294 110.724 61.6359 112.776C61.5423 115.388 59.1106 117.534 56.6788 116.974C56.7723 115.761 57.3335 114.362 58.1753 113.336C59.1106 112.31 60.3265 110.817 60.6071 109.418C60.3265 110.817 58.7365 112.403 57.9882 113.056Z" fill="white"/>
<path fill-rule="evenodd" clip-rule="evenodd" d="M37.973 100.65C37.5988 101.023 36.6635 102.142 36.4765 103.635C35.5412 102.609 35.5412 101.209 35.8218 100.37C36.57 98.1312 39.9371 97.9446 41.0594 96.079C40.5918 97.5715 40.9659 98.8774 40.8724 100.463C40.7788 102.422 38.9083 104.101 36.9441 103.728C37.0377 102.795 37.4118 101.676 38.16 100.93C38.9082 100.09 39.8435 98.9707 40.0306 97.8513C39.8435 98.8774 38.6277 100.09 37.973 100.65Z" fill="white"/>
<path fill-rule="evenodd" clip-rule="evenodd" d="M38.0665 112.31C37.6923 110.631 38.6276 109.045 39.5629 108.299C41.9012 106.247 45.7359 108.299 48.1676 106.993C46.5776 108.299 46.2035 109.978 45.0812 111.657C43.6782 113.802 40.4982 114.455 38.6276 112.776C39.3759 111.75 40.4982 110.817 41.8076 110.444C43.2106 109.978 44.8941 109.418 45.9229 108.299C44.8941 109.325 42.7429 109.791 41.7141 110.071C41.1529 110.071 39.3759 110.724 38.0665 112.31Z" fill="white"/>
<path fill-rule="evenodd" clip-rule="evenodd" d="M50.88 124.063C48.3547 124.25 46.2035 121.825 46.3906 119.306C46.5777 117.254 47.2324 115.761 46.7647 113.709C47.8871 116.228 52.1894 116.974 52.8441 120.052C53.0312 121.172 52.8441 123.037 51.5347 124.157C51.5347 122.198 50.5059 120.519 50.1318 120.052C49.4771 119.213 48.0741 117.534 47.8871 116.134C48.0741 117.627 49.0094 119.213 49.8512 120.332C50.5994 121.358 50.88 122.757 50.88 124.063Z" fill="white"/>
<path fill-rule="evenodd" clip-rule="evenodd" d="M62.3841 132.832C61.7294 133.205 59.7653 134.791 58.9235 137.216C57.7077 135.257 58.2688 132.925 59.0171 131.619C61.0747 128.168 66.593 129.007 69.1182 126.395C67.8088 128.727 67.9024 130.873 67.2477 133.485C66.4059 136.749 62.7582 138.802 59.7653 137.496C60.233 135.91 61.2618 134.324 62.6647 133.298C64.1612 132.179 66.0318 130.686 66.8735 128.914C65.9382 130.593 63.5065 132.179 62.3841 132.832Z" fill="white"/>
<path fill-rule="evenodd" clip-rule="evenodd" d="M22.5406 112.87C23.3824 113.522 24.0371 114.455 24.3177 115.388C22.4471 116.228 20.2959 114.922 19.7347 112.963C19.3606 111.47 19.4541 110.071 18.6124 108.672C20.1088 110.258 23.4759 109.698 24.6918 111.843C25.1594 112.59 25.44 114.082 24.7853 115.202C24.2241 113.709 23.1018 112.776 22.6341 112.496C21.9794 112.03 20.483 111.097 19.9218 110.164C20.5765 111.284 21.6988 112.217 22.5406 112.87Z" fill="white"/>
<path fill-rule="evenodd" clip-rule="evenodd" d="M21.9794 134.324C23.85 132.365 23.0082 128.261 25.627 126.582C26.5623 126.022 28.3394 125.462 29.8359 126.302C28.0588 127.048 26.9365 128.541 26.6559 129.1C26.1882 130.033 25.0659 131.899 23.85 132.552C25.1594 131.899 26.1882 130.5 27.03 129.287C27.7782 128.168 28.9941 127.328 30.1165 126.955C31.2388 129.194 29.7423 131.992 27.3106 132.738C25.3465 133.298 23.6629 133.205 21.9794 134.324Z" fill="white"/>
<path fill-rule="evenodd" clip-rule="evenodd" d="M23.5694 159.696C24.8788 158.857 27.3106 158.204 29.4618 159.323C26.9365 160.349 25.44 162.495 24.9724 163.148C24.3177 164.36 22.7277 167.066 21.0441 167.998C22.8212 167.066 24.3177 165.107 25.44 163.428C26.4688 161.842 28.1524 160.723 29.7424 160.163C31.2388 163.334 29.2747 167.159 25.9077 168.185C23.2888 169.025 20.9506 168.931 18.6124 170.424C21.1377 167.719 20.0153 162.028 23.5694 159.696Z" fill="white"/>
<path fill-rule="evenodd" clip-rule="evenodd" d="M41.8076 167.532C41.34 165.666 41.7141 163.707 42.3688 162.215C45.7359 163.334 47.0453 167.439 45.5488 170.517C44.3329 172.942 42.6494 174.621 42.0882 177.326C41.9947 173.502 36.9441 170.424 37.7859 166.226C38.0665 164.734 39.2823 162.495 41.5271 161.749C40.4982 164.267 40.9659 166.879 41.2465 167.625C41.6206 168.931 42.5559 171.916 41.9947 173.782C42.7429 171.916 42.2753 169.491 41.8076 167.532Z" fill="white"/>
<path fill-rule="evenodd" clip-rule="evenodd" d="M31.4259 166.039C31.7065 165.013 32.7353 163.614 34.3253 163.334C33.4835 165.013 33.4835 166.786 33.6706 167.345C33.8577 168.278 34.1382 170.33 33.6706 171.543C34.2318 170.237 34.1382 168.558 34.0447 167.252C33.9512 165.946 34.3253 164.64 34.8865 163.707C37.0377 164.734 37.5988 167.625 36.2894 169.584C35.2606 171.17 33.9512 172.103 33.39 173.968C33.6706 171.356 30.4906 168.745 31.4259 166.039Z" fill="white"/>
<path fill-rule="evenodd" clip-rule="evenodd" d="M28.433 140.387C30.7712 141.413 34.2318 139.268 36.57 141.04C37.4118 141.693 38.4406 143.092 38.2535 144.678C36.9441 143.279 35.2606 142.813 34.6994 142.719C33.7641 142.533 31.7065 142.253 30.6777 141.413C31.7065 142.346 33.2965 142.813 34.6059 143.092C35.8218 143.372 36.9441 144.119 37.6924 145.051C36.0088 146.73 33.1094 146.357 31.613 144.492C30.4906 142.999 30.023 141.507 28.433 140.387Z" fill="white"/>
<path fill-rule="evenodd" clip-rule="evenodd" d="M34.6059 152.887C35.4477 151.954 36.7571 151.394 37.8794 151.208C38.5341 153.54 36.6635 155.872 34.3253 156.152C32.4547 156.432 30.8647 156.058 29.1812 156.805C31.2388 155.312 31.1453 151.301 33.8577 150.182C34.7929 149.809 36.57 149.622 37.8794 150.648C36.1024 151.021 34.7929 152.234 34.4188 152.7C33.7641 153.447 32.4547 155.032 31.2388 155.499C32.4547 155.032 33.6706 153.82 34.6059 152.887Z" fill="white"/>
<path fill-rule="evenodd" clip-rule="evenodd" d="M55.5565 169.957C55.0888 167.439 51.4412 165.666 51.6282 162.868C51.7218 161.842 52.2829 160.163 53.7794 159.51C53.3118 161.282 53.8729 163.055 54.06 163.521C54.4341 164.36 55.2759 166.319 55.1823 167.625C55.3694 166.226 54.9018 164.64 54.4341 163.334C53.9665 162.122 54.06 160.723 54.3406 159.696C56.6788 160.163 57.9882 162.775 57.24 165.107C56.6788 166.786 55.65 168.092 55.5565 169.957Z" fill="white"/>
<path fill-rule="evenodd" clip-rule="evenodd" d="M60.8877 162.215C59.6718 161.749 58.7365 160.723 58.1753 159.79C60.0459 158.391 62.9453 159.23 64.0677 161.375C65.0029 163.055 65.19 164.64 66.4994 165.946C64.3482 164.547 60.6071 166.04 58.643 163.987C57.8947 163.241 57.1465 161.655 57.6141 160.07C58.643 161.655 60.233 162.402 60.7941 162.588C61.7294 162.868 63.6935 163.521 64.5353 164.547C63.6935 163.521 62.1035 162.775 60.8877 162.215Z" fill="white"/>
<path fill-rule="evenodd" clip-rule="evenodd" d="M40.8724 133.671C42.7429 133.111 44.8006 133.298 46.4841 133.951C45.5488 137.402 41.4335 139.081 38.0665 137.682C35.4476 136.563 33.6706 134.977 30.7712 134.604C34.6994 134.231 37.5988 128.914 41.9947 129.473C43.5847 129.66 46.0165 130.779 46.8582 133.111C44.1459 132.272 41.5271 132.832 40.7788 133.205C39.3759 133.764 36.4765 134.79 34.4188 134.417C36.3829 134.79 38.9082 134.231 40.8724 133.671Z" fill="white"/>
</svg>
